<svg width="76" height="52" viewBox="0 0 76 52" fill="none" xmlns="http://www.w3.org/2000/svg">
<g clip-path="url(#clip0_2926_2674)">
<path d="M69.324 51.1824C65.835 51.1824 63.767 49.3974 63.608 46.8264H66.943C66.943 47.6834 67.418 48.8264 69.482 48.8954C70.912 48.8954 71.704 48.0384 71.704 47.3954C71.546 46.3954 70.274 46.3264 69.004 46.1074C67.8596 45.9722 66.7381 45.6857 65.669 45.2554C65.1252 44.9513 64.6749 44.5042 64.367 43.9625C64.0591 43.4208 63.9052 42.8052 63.922 42.1824C63.922 39.8944 65.833 38.1094 69.163 38.1094C72.34 38.1094 74.404 39.7534 74.556 42.2534H71.388C71.388 41.6144 71.23 40.5394 69.324 40.5394C68.052 40.5394 67.26 40.7524 67.102 41.6804C67.102 42.9684 69.802 42.8984 71.862 43.3944C73.767 43.8944 75.039 45.1084 75.039 46.8284C75.039 49.9724 72.501 51.1844 69.324 51.1844V51.1824ZM8.54303 30.0844L19.494 23.7244L25.368 33.8024H10.607" fill="#333333"/>
<path d="M33.173 38.0835H29.968V50.8025H33.173V38.0835Z" fill="#333333"/>
<path d="M3.46101 44.6314C3.48318 45.591 3.87458 46.505 4.55373 47.1832C5.23288 47.8614 6.14744 48.2516 7.10701 48.2724C7.58266 48.2763 8.05441 48.1864 8.49532 48.0079C8.93622 47.8294 9.33765 47.5658 9.67668 47.2321C10.0157 46.8985 10.2857 46.5013 10.4712 46.0633C10.6568 45.6253 10.7542 45.1551 10.758 44.6794V44.6314C10.7512 43.666 10.3639 42.7422 9.68015 42.0605C8.99643 41.3789 8.07147 40.9944 7.10601 40.9904C6.1504 41.0235 5.24284 41.4175 4.56625 42.0932C3.88966 42.7688 3.49436 43.6759 3.46001 44.6314H3.46101ZM6.94801 51.2044C5.21429 51.2044 3.55158 50.5157 2.32565 49.2898C1.09973 48.0639 0.411011 46.4012 0.411011 44.6674C0.410879 43.8087 0.579935 42.9584 0.908516 42.1651C1.2371 41.3717 1.71877 40.6509 2.32601 40.0437C2.93325 39.4366 3.65416 38.955 4.44756 38.6266C5.24096 38.2981 6.09131 38.1292 6.95001 38.1294C8.30862 38.098 9.64232 38.4974 10.76 39.2704V38.2704H13.937V50.9134H10.76V50.1274C9.63212 50.872 8.30073 51.2476 6.95001 51.2024L6.94801 51.2044ZM49.336 33.8024L34.098 7.22543L45.05 0.794434L64.095 33.8004L49.336 33.8024ZM18.063 44.6314C18.059 45.5929 18.4371 46.5167 19.1141 47.1995C19.791 47.8822 20.7115 48.2682 21.673 48.2724H21.715C22.6752 48.2519 23.5906 47.862 24.2708 47.1839C24.9509 46.5058 25.3436 45.5916 25.367 44.6314C25.3314 43.6753 24.9349 42.7681 24.2573 42.0925C23.5797 41.4169 22.6713 41.0232 21.715 40.9904C20.7499 40.9954 19.8255 41.3802 19.142 42.0617C18.4585 42.7431 18.0709 43.6663 18.063 44.6314ZM21.557 51.2044C20.6982 51.1895 19.8507 51.0054 19.063 50.6628C18.2753 50.3203 17.5628 49.8258 16.9663 49.2078C16.3697 48.5898 15.9007 47.8603 15.5862 47.061C15.2716 46.2617 15.1176 45.4083 15.133 44.5494C15.1481 43.6908 15.3322 42.8435 15.6748 42.056C16.0174 41.2685 16.5117 40.5561 17.1296 39.9597C17.7475 39.3632 18.4768 38.8944 19.276 38.5798C20.0751 38.2653 20.9283 38.1112 21.787 38.1264C23.0665 38.149 24.3112 38.5464 25.367 39.2694V33.9134H28.539V50.9134H25.367V50.1274C24.229 50.8504 22.9041 51.2241 21.556 51.2024L21.557 51.2044ZM21.4 18.7254L32.509 12.4424L44.732 33.7994H33.142V36.9434H29.97V33.7994L21.4 18.7254ZM72.98 37.0424C72.7736 37.0426 72.5691 37.002 72.3784 36.9232C72.1876 36.8443 72.0142 36.7286 71.8681 36.5827C71.7221 36.4368 71.6062 36.2636 71.5271 36.0729C71.4479 35.8823 71.4071 35.6779 71.407 35.4714C71.4069 35.265 71.4474 35.0606 71.5263 34.8698C71.6052 34.679 71.7208 34.5056 71.8667 34.3596C72.0126 34.2135 72.1858 34.0976 72.3765 34.0185C72.5672 33.9394 72.7716 33.8986 72.978 33.8984C73.1846 33.8955 73.3897 33.9333 73.5817 34.0097C73.7736 34.0861 73.9487 34.1995 74.0968 34.3436C74.2449 34.4876 74.3632 34.6594 74.4449 34.8491C74.5266 35.0389 74.5701 35.2429 74.573 35.4494C74.5757 35.656 74.5376 35.861 74.4609 36.0528C74.3843 36.2446 74.2706 36.4194 74.1264 36.5673C73.9822 36.7151 73.8102 36.8331 73.6204 36.9144C73.4305 36.9958 73.2265 37.039 73.02 37.0414H72.98V37.0424ZM72.98 34.1154C72.806 34.1157 72.6339 34.1515 72.4742 34.2206C72.3146 34.2898 72.1708 34.3909 72.0516 34.5178C71.9325 34.6446 71.8406 34.7944 71.7815 34.9581C71.7224 35.1217 71.6974 35.2958 71.708 35.4694C71.6973 35.6434 71.7221 35.8177 71.7811 35.9817C71.8401 36.1457 71.932 36.2959 72.0511 36.4231C72.1702 36.5504 72.314 36.652 72.4737 36.7216C72.6334 36.7913 72.8057 36.8277 72.98 36.8284C73.1541 36.8275 73.3261 36.7911 73.4856 36.7214C73.6451 36.6517 73.7887 36.5502 73.9076 36.4231C74.0265 36.2959 74.1182 36.1459 74.1771 35.9821C74.2359 35.8183 74.2608 35.6442 74.25 35.4704C74.2609 35.2971 74.2363 35.1234 74.1776 34.9599C74.1189 34.7965 74.0274 34.6468 73.9088 34.52C73.7901 34.3931 73.6468 34.2919 73.4876 34.2225C73.3284 34.1532 73.1567 34.117 72.983 34.1164" fill="#333333"/>
<path d="M73.306 36.3334L72.989 35.6184H72.672V36.3334H72.433V34.6184H73.148C73.271 34.6381 73.3842 34.6977 73.4701 34.7881C73.5559 34.8784 73.6096 34.9945 73.623 35.1184C73.6292 35.2245 73.6019 35.3298 73.545 35.4195C73.4882 35.5092 73.4045 35.5788 73.306 35.6184L73.623 36.3334H73.306ZM72.99 34.8334H72.673V35.4014H72.99C73.307 35.4014 73.307 35.3304 73.307 35.1174C73.307 34.9704 73.307 34.8334 72.99 34.8334ZM52.015 44.6264C52.011 45.5879 52.3891 46.5116 53.066 47.1944C53.743 47.8772 54.6635 48.2632 55.625 48.2674H55.667C56.627 48.2476 57.5422 47.8578 58.2217 47.1794C58.9012 46.501 59.2925 45.5864 59.314 44.6264C59.2808 43.6703 58.8857 42.7625 58.2087 42.0865C57.5316 41.4106 56.6232 41.017 55.667 40.9854C54.7018 40.9904 53.7775 41.3752 53.094 42.0567C52.4105 42.7381 52.0229 43.6613 52.015 44.6264ZM55.504 51.1994C54.4849 51.1812 53.4842 50.9251 52.5817 50.4514C51.6792 49.9778 50.9 49.2997 50.3061 48.4713C49.7123 47.643 49.3203 46.6872 49.1615 45.6805C49.0026 44.6737 49.0813 43.6437 49.3913 42.6727C49.7013 41.7018 50.234 40.8167 50.9468 40.0882C51.6596 39.3597 52.5329 38.8079 53.4969 38.4769C54.4609 38.1459 55.4889 38.0448 56.4989 38.1817C57.5089 38.3186 58.4729 38.6897 59.314 39.2654V38.2654H62.333V50.9144H59.314V50.1284C58.1765 50.8526 56.8512 51.2265 55.503 51.2034L55.504 51.1994ZM37.423 44.6304C37.4462 45.5911 37.8394 46.5058 38.5205 47.1838C39.2017 47.8617 40.1182 48.2506 41.079 48.2694C41.5552 48.273 42.0274 48.1827 42.4687 48.0037C42.91 47.8246 43.3117 47.5604 43.6509 47.2261C43.99 46.8918 44.26 46.4939 44.4453 46.0552C44.6306 45.6165 44.7277 45.1456 44.731 44.6694V44.6264C44.7231 43.6613 44.3355 42.7381 43.652 42.0567C42.9685 41.3752 42.0441 40.9904 41.079 40.9854C40.1224 41.0172 39.2135 41.4107 38.5357 42.0864C37.8579 42.7622 37.4617 43.6699 37.427 44.6264L37.423 44.6304ZM44.727 33.9094H47.906V50.9094H44.731V50.1234C43.6613 50.8659 42.3804 51.243 41.079 51.1984C40.2109 51.2136 39.3485 51.0557 38.5421 50.734C37.7357 50.4123 37.0014 49.9333 36.3822 49.3247C35.7629 48.7162 35.2711 47.9904 34.9353 47.1898C34.5996 46.3891 34.4266 45.5296 34.4266 44.6614C34.4266 43.7932 34.5996 42.9337 34.9353 42.1331C35.2711 41.3324 35.7629 40.6066 36.3822 39.9981C37.0014 39.3896 37.7357 38.9105 38.5421 38.5888C39.3485 38.2671 40.2109 38.1092 41.079 38.1244C42.3922 38.0714 43.6831 38.4761 44.731 39.2694L44.727 33.9094Z" fill="#333333"/>
</g>
<defs>
<clipPath id="clip0_2926_2674">
<rect width="74.628" height="50.411" fill="white" transform="translate(0.411011 0.794434)"/>
</clipPath>
</defs>
</svg>
