<svg width="121" height="38" viewBox="0 0 121 38" fill="none" xmlns="http://www.w3.org/2000/svg">
<g clip-path="url(#clip0_2926_2672)">
<path d="M63.954 9.64792C63.9542 10.1319 63.8109 10.6051 63.5421 11.0077C63.2733 11.4102 62.8912 11.724 62.4441 11.9094C61.997 12.0947 61.505 12.1433 61.0302 12.049C60.5555 11.9547 60.1194 11.7217 59.777 11.3795C59.4347 11.0374 59.2016 10.6013 59.1071 10.1266C59.0126 9.65195 59.061 9.1599 59.2462 8.71271C59.4313 8.26552 59.745 7.8833 60.1474 7.61438C60.5498 7.34546 61.023 7.2019 61.507 7.2019C61.8284 7.20125 62.1469 7.26404 62.444 7.38672C62.7411 7.5094 63.0111 7.68953 63.2384 7.91678C63.4658 8.14403 63.646 8.41393 63.7688 8.711C63.8916 9.00807 63.9545 9.32647 63.954 9.64792ZM53.867 14.5789V15.1789C53.4041 14.678 52.8378 14.2839 52.2073 14.0238C51.5769 13.7637 50.8974 13.644 50.216 13.6729C48.2824 13.7363 46.4491 14.549 45.1037 15.9392C43.7583 17.3294 43.0061 19.1882 43.0061 21.1229C43.0061 23.0575 43.7583 24.9164 45.1037 26.3066C46.4491 27.6969 48.2824 28.5095 50.216 28.5729C50.9013 28.6063 51.5854 28.485 52.2175 28.2178C52.8495 27.9507 53.4133 27.5447 53.867 27.0299V27.6689C53.8653 27.7385 53.8778 27.8077 53.9038 27.8724C53.9297 27.937 53.9685 27.9957 54.0177 28.0449C54.067 28.094 54.1258 28.1327 54.1905 28.1585C54.2551 28.1843 54.3244 28.1967 54.394 28.1949H57.442V14.0499H54.394C54.2552 14.0535 54.123 14.1103 54.0249 14.2086C53.9268 14.3068 53.8703 14.4391 53.867 14.5779V14.5789ZM53.867 23.6489C53.5182 24.1299 53.0597 24.5209 52.5297 24.7894C51.9996 25.0579 51.4132 25.1962 50.819 25.1929C50.27 25.2173 49.7218 25.1302 49.2073 24.9369C48.6929 24.7436 48.223 24.4481 47.8259 24.0682C47.4288 23.6883 47.1127 23.232 46.8968 22.7266C46.6809 22.2213 46.5696 21.6774 46.5696 21.1279C46.5696 20.5784 46.6809 20.0345 46.8968 19.5292C47.1127 19.0238 47.4288 18.5675 47.8259 18.1876C48.223 17.8077 48.6929 17.5122 49.2073 17.3189C49.7218 17.1256 50.27 17.0385 50.819 17.0629C51.4116 17.0676 51.9952 17.2093 52.5239 17.477C53.0527 17.7447 53.5124 18.131 53.867 18.6059V23.6489ZM59.701 14.0489H63.314V28.2019H59.701V14.0489ZM113.673 13.6719C112.992 13.643 112.312 13.7627 111.682 14.0228C111.051 14.2829 110.485 14.677 110.022 15.1779V7.23691H106.409V28.2019H109.458C109.597 28.1988 109.729 28.1423 109.827 28.0441C109.925 27.9459 109.981 27.8136 109.984 27.6749V27.0349C110.442 27.5445 111.006 27.9469 111.637 28.2136C112.268 28.4803 112.95 28.6047 113.634 28.5779C115.577 28.5328 117.426 27.7303 118.787 26.3416C120.147 24.9529 120.911 23.0878 120.916 21.1439C120.921 19.2 120.166 17.331 118.813 15.9354C117.46 14.5398 115.615 13.728 113.672 13.6729L113.673 13.6719ZM113.073 25.1519C112.478 25.16 111.89 25.0239 111.359 24.7552C110.828 24.4865 110.37 24.0932 110.024 23.6089V18.5649C110.391 18.1028 110.853 17.7256 111.379 17.4593C111.906 17.1929 112.484 17.0437 113.073 17.0219C113.622 16.9976 114.17 17.0847 114.685 17.278C115.199 17.4713 115.669 17.7667 116.066 18.1466C116.463 18.5265 116.779 18.9828 116.995 19.4882C117.211 19.9935 117.322 20.5374 117.322 21.0869C117.322 21.6364 117.211 22.1803 116.995 22.6856C116.779 23.191 116.463 23.6473 116.066 24.0272C115.669 24.4071 115.199 24.7026 114.685 24.8959C114.17 25.0892 113.622 25.1763 113.073 25.1519ZM104.53 19.8079V28.2379H100.913V20.2209C100.913 17.8879 100.16 16.9459 98.129 16.9459C97.5697 16.9623 97.0199 17.0946 96.5144 17.3344C96.0089 17.5742 95.5586 17.9162 95.192 18.3389V28.2019H91.583V14.0509H94.442C94.5809 14.0537 94.7133 14.1101 94.8115 14.2084C94.9098 14.3066 94.9662 14.439 94.969 14.5779V15.1779C95.4718 14.6776 96.072 14.2858 96.7323 14.0267C97.3926 13.7677 98.0991 13.6469 98.808 13.6719C100.247 13.6226 101.655 14.105 102.761 15.0269C104.04 16.0809 104.53 17.4359 104.53 19.8069V19.8079ZM82.813 13.6719C82.1318 13.6432 81.4525 13.763 80.8222 14.023C80.1919 14.2831 79.6257 14.6772 79.163 15.1779V7.23691H75.55V28.2019H78.598C78.7368 28.1988 78.8691 28.1423 78.9673 28.0442C79.0654 27.946 79.1219 27.8137 79.125 27.6749V27.0349C79.5826 27.5445 80.147 27.9469 80.7778 28.2136C81.4087 28.4803 82.0906 28.6047 82.775 28.5779C84.7184 28.5328 86.5673 27.7303 87.9276 26.3416C89.2878 24.9529 90.0519 23.0878 90.0569 21.1439C90.0618 19.2 89.3073 17.331 87.9541 15.9354C86.6009 14.5398 84.7561 13.728 82.813 13.6729V13.6719ZM82.213 25.1519C81.6181 25.16 81.0301 25.0238 80.4993 24.7551C79.9685 24.4864 79.5107 24.0931 79.165 23.6089V18.5649C79.5315 18.1029 79.9937 17.7257 80.5199 17.4594C81.0461 17.193 81.6237 17.0438 82.213 17.0219C82.762 16.9976 83.3102 17.0847 83.8247 17.278C84.3391 17.4713 84.809 17.7667 85.2061 18.1466C85.6032 18.5265 85.9192 18.9828 86.1351 19.4882C86.3511 19.9935 86.4624 20.5374 86.4624 21.0869C86.4624 21.6364 86.3511 22.1803 86.1351 22.6856C85.9192 23.191 85.6032 23.6473 85.2061 24.0272C84.809 24.4071 84.3391 24.7026 83.8247 24.8959C83.3102 25.0892 82.762 25.1763 82.213 25.1519ZM72.428 13.6719C72.9862 13.6541 73.5441 13.7177 74.084 13.8609V17.2099C74.084 17.2099 71.073 16.1939 69.192 18.3389V28.2389H65.578V14.0509H68.627C68.7657 14.054 68.8979 14.1105 68.9959 14.2087C69.0939 14.3069 69.1502 14.4392 69.153 14.5779V15.1779C70.0152 14.2839 71.1822 13.747 72.422 13.6739L72.428 13.6719ZM34.904 26.9209C34.716 26.4699 34.528 25.9799 34.34 25.5659C34.04 24.8889 33.74 24.2479 33.475 23.6459L33.437 23.6079C30.837 17.9619 28.055 12.2419 25.119 6.59689L25.006 6.37091C24.6973 5.78558 24.3973 5.1959 24.106 4.6019C23.7349 3.86238 23.2803 3.16783 22.751 2.53189C22.182 1.80566 21.4552 1.21845 20.6257 0.814759C19.7961 0.411068 18.8856 0.201497 17.963 0.201905C17.0442 0.205239 16.1371 0.409022 15.3052 0.799012C14.4732 1.189 13.7363 1.7558 13.146 2.4599C12.6291 3.10493 12.1754 3.79812 11.791 4.52991C11.497 5.12324 11.197 5.71289 10.891 6.29889L10.778 6.5249C7.87799 12.1699 5.057 17.8909 2.46 23.5359L2.42201 23.6109C2.15901 24.2109 1.85698 24.8539 1.55598 25.5299C1.36798 25.9439 1.17998 26.3956 0.991983 26.8849C0.510889 28.1825 0.356026 29.5784 0.540994 30.9499C0.741607 32.3273 1.29811 33.6285 2.15553 34.7249C3.01295 35.8214 4.14162 36.6752 5.43 37.2019C6.3952 37.6064 7.4325 37.8105 8.47898 37.8019C8.80651 37.7955 9.13339 37.7701 9.45799 37.7259C10.786 37.5573 12.0662 37.1223 13.222 36.4469C14.9775 35.4009 16.5532 34.0794 17.889 32.5329C19.2332 34.0708 20.8075 35.3911 22.556 36.4469C23.7117 37.1223 24.992 37.5573 26.32 37.7259C26.6446 37.7703 26.9715 37.7957 27.299 37.8019C28.3455 37.8142 29.3832 37.6099 30.347 37.2019C31.6364 36.6773 32.7663 35.8248 33.6246 34.7288C34.4829 33.6328 35.0398 32.3315 35.24 30.9539C35.5171 29.6068 35.3987 28.2083 34.899 26.9269L34.904 26.9209ZM17.93 28.8779C16.1717 26.8471 14.8751 24.4587 14.13 21.8779C13.9459 21.1255 13.9076 20.3448 14.017 19.5779C14.0903 19.0112 14.2958 18.4696 14.617 17.9969C14.9947 17.4744 15.4932 17.0509 16.0698 16.7626C16.6465 16.4742 17.2843 16.3296 17.929 16.3409C18.5757 16.3168 19.218 16.4558 19.7969 16.7452C20.3757 17.0346 20.8723 17.4651 21.241 17.9969C21.5617 18.4699 21.7671 19.0113 21.841 19.5779C21.9507 20.3448 21.9124 21.1255 21.728 21.8779C20.9649 24.4526 19.6692 26.8381 17.925 28.8799L17.93 28.8779ZM32.946 30.6469C32.8098 31.6158 32.4219 32.532 31.8209 33.3041C31.2199 34.0762 30.4269 34.6772 29.521 35.0469C28.6157 35.4154 27.6308 35.5449 26.661 35.4229C25.6506 35.2968 24.677 34.9639 23.801 34.4449C22.1838 33.4664 20.7348 32.2336 19.51 30.7939C21.6356 28.4004 23.1924 25.5571 24.064 22.4769C24.3091 21.4288 24.3726 20.3465 24.252 19.2769C24.1128 18.3576 23.7653 17.4823 23.236 16.7179C22.6368 15.8731 21.8398 15.1879 20.9147 14.7221C19.9896 14.2563 18.9645 14.0241 17.929 14.0459C16.895 14.0325 15.873 14.2683 14.9494 14.7334C14.0258 15.1985 13.2279 15.8792 12.623 16.7179C12.094 17.4825 11.7465 18.3577 11.607 19.2769C11.448 20.3451 11.512 21.4347 11.795 22.4769C12.6805 25.5627 14.2354 28.4154 16.349 30.8319C15.1329 32.2803 13.6824 33.5144 12.058 34.4829C11.1822 35.0024 10.2085 35.3354 9.19801 35.4609C8.22796 35.5693 7.24609 35.4402 6.33698 35.0849C5.43111 34.7152 4.63809 34.1143 4.03709 33.3422C3.43609 32.5701 3.04814 31.6538 2.912 30.6849C2.78787 29.6935 2.90413 28.6869 3.25099 27.7499C3.36299 27.3729 3.551 26.9969 3.74 26.5499C4.004 25.9499 4.304 25.3069 4.606 24.6679L4.64399 24.5929C7.24399 18.9849 10.026 13.2639 12.924 7.6929L13.037 7.46692C13.337 6.90292 13.637 6.3009 13.937 5.7359C14.2212 5.14365 14.5751 4.58741 14.991 4.07892C15.362 3.64251 15.8234 3.29195 16.3433 3.05154C16.8632 2.81114 17.4292 2.68662 18.002 2.68662C18.5748 2.68662 19.1407 2.81114 19.6607 3.05154C20.1806 3.29195 20.642 3.64251 21.013 4.07892C21.4284 4.58775 21.7823 5.14393 22.067 5.7359C22.367 6.3009 22.667 6.90292 22.967 7.46692L23.08 7.6929C25.934 13.2862 28.6813 18.9319 31.322 24.6299V24.6679C31.622 25.2679 31.887 25.9479 32.188 26.5509C32.376 27.0019 32.564 27.3779 32.677 27.7509C32.9874 28.6843 33.0771 29.677 32.939 30.6509L32.946 30.6469Z" fill="#333333"/>
</g>
<defs>
<clipPath id="clip0_2926_2672">
<rect width="120.478" height="37.6" fill="white" transform="translate(0.458984 0.199951)"/>
</clipPath>
</defs>
</svg>
