<svg width="92" height="54" viewBox="0 0 92 54" fill="none" xmlns="http://www.w3.org/2000/svg">
<path d="M29.705 47.4975H25.965V32.6765H29.705V47.4975Z" fill="#333333"/>
<path d="M59.867 36.9225C58.9014 36.399 57.8195 36.1269 56.721 36.1315C56.1871 36.1009 55.6527 36.181 55.1513 36.3668C54.6498 36.5526 54.1922 36.8404 53.8072 37.2115C53.4222 37.5827 53.1181 38.0293 52.9139 38.5236C52.7098 39.0178 52.6101 39.549 52.621 40.0836C52.6096 40.6186 52.7089 41.1503 52.9127 41.6451C53.1166 42.1399 53.4206 42.587 53.8057 42.9586C54.1907 43.3302 54.6485 43.6181 55.1502 43.8043C55.6519 43.9905 56.1867 44.0711 56.721 44.0406C57.8187 44.0434 58.8999 43.7728 59.867 43.2535V47.2325C58.7624 47.5717 57.6145 47.7494 56.459 47.7604C52.252 47.7604 48.559 44.8606 48.559 40.0826C48.5421 39.0511 48.7366 38.0269 49.1306 37.0734C49.5246 36.1199 50.1097 35.2574 50.8499 34.5387C51.5901 33.82 52.4697 33.2604 53.4343 32.8946C54.399 32.5288 55.4284 32.3645 56.459 32.4117C57.6155 32.4144 58.7647 32.5936 59.867 32.9435V36.9225ZM20.829 36.9225C19.8652 36.3978 18.7843 36.1257 17.687 36.1315C17.1532 36.101 16.6188 36.1814 16.1174 36.3673C15.6161 36.5532 15.1585 36.8405 14.7735 37.2115C14.3885 37.5826 14.0844 38.0294 13.8803 38.5236C13.6761 39.0177 13.5763 39.549 13.587 40.0836C13.5757 40.6186 13.6751 41.1499 13.879 41.6446C14.083 42.1394 14.387 42.587 14.772 42.9586C15.157 43.3302 15.6148 43.6181 16.1164 43.8043C16.618 43.9906 17.1528 44.071 17.687 44.0406C18.7836 44.0446 19.8637 43.7739 20.829 43.2535V47.2325C19.7233 47.5731 18.5739 47.7508 17.417 47.7604C13.217 47.7604 9.52601 44.8606 9.52601 40.0826C9.50885 39.0517 9.70297 38.0279 10.0964 37.0748C10.4898 36.1217 11.0742 35.2593 11.8135 34.5406C12.5529 33.822 13.4316 33.2623 14.3955 32.8961C15.3593 32.5299 16.388 32.3653 17.418 32.4117C18.5756 32.4134 19.7259 32.5926 20.829 32.9435V36.9225ZM71.629 36.1866C71.1171 36.1817 70.6094 36.2795 70.1359 36.4742C69.6624 36.6689 69.2327 36.9564 68.8723 37.3199C68.5119 37.6835 68.228 38.1158 68.0375 38.5909C67.847 39.0661 67.7536 39.5747 67.763 40.0865C67.7538 40.5984 67.8472 41.107 68.0378 41.5821C68.2284 42.0573 68.5122 42.4891 68.8726 42.8527C69.233 43.2162 69.6626 43.5041 70.1361 43.6988C70.6095 43.8936 71.1171 43.9912 71.629 43.9864C72.1411 43.9912 72.6489 43.8935 73.1224 43.6988C73.596 43.5041 74.0258 43.2167 74.3864 42.8531C74.747 42.4896 75.0312 42.0573 75.2221 41.5821C75.413 41.107 75.5068 40.5985 75.498 40.0865C75.5068 39.5746 75.413 39.0661 75.2221 38.5909C75.0312 38.1158 74.747 37.6839 74.3864 37.3204C74.0258 36.9569 73.596 36.6689 73.1224 36.4742C72.6489 36.2795 72.1411 36.1819 71.629 36.1866ZM79.4611 40.0865C79.4704 41.1102 79.273 42.1253 78.8809 43.0709C78.4887 44.0166 77.9098 44.8733 77.1787 45.59C76.4477 46.3066 75.5795 46.8685 74.6263 47.2418C73.673 47.6151 72.6543 47.7924 71.631 47.7628C70.6076 47.7926 69.5887 47.6152 68.6354 47.2418C67.6821 46.8684 66.8139 46.3064 66.083 45.5895C65.352 44.8725 64.7734 44.0154 64.3816 43.0695C63.9898 42.1235 63.793 41.1084 63.803 40.0846C63.7941 39.0615 63.9917 38.0471 64.3839 37.1022C64.776 36.1572 65.3548 35.3012 66.0855 34.5851C66.8162 33.8689 67.6838 33.3073 68.6365 32.9342C69.5892 32.5611 70.6073 32.3842 71.63 32.4137C72.6531 32.3841 73.6717 32.5611 74.6249 32.9342C75.578 33.3073 76.4462 33.8688 77.1773 34.5851C77.9085 35.3014 78.4877 36.1578 78.8803 37.1031C79.2728 38.0484 79.4707 39.063 79.462 40.0865H79.4611ZM43.892 36.0475C42.9383 35.7835 41.957 35.6313 40.968 35.5944C39.468 35.5944 38.654 36.0947 38.654 36.8087C38.654 37.7087 39.754 38.0258 40.368 38.2208L41.4 38.5485C43.828 39.3205 44.934 40.9837 44.934 42.7897C44.934 46.5127 41.66 47.7638 38.798 47.7638C37.4432 47.7508 36.0923 47.6147 34.762 47.3575V43.9464C35.9106 44.2805 37.0973 44.4663 38.293 44.4986C40.154 44.4986 41.009 43.9533 41.009 43.1153C41.009 42.3643 40.269 41.9298 39.341 41.6388C39.116 41.5628 38.775 41.4555 38.541 41.3805C36.458 40.7225 34.722 39.4965 34.722 37.0445C34.722 34.2725 36.798 32.4117 40.245 32.4117C41.4741 32.4286 42.6972 32.5867 43.89 32.8834V36.0455L43.892 36.0475Z" fill="#333333"/>
<path d="M5.55902 16.7495C5.5577 16.2582 5.3615 15.7873 5.01355 15.4404C4.6656 15.0936 4.19429 14.8991 3.703 14.8994C3.21189 14.8986 2.74051 15.0927 2.39221 15.439C2.04391 15.7852 1.84715 16.2555 1.84503 16.7466V20.6387C1.85728 21.1232 2.05821 21.5834 2.40509 21.9219C2.75197 22.2603 3.21737 22.4503 3.70203 22.4507C4.18668 22.4503 4.65202 22.2603 4.9989 21.9219C5.34578 21.5834 5.54677 21.1232 5.55902 20.6387V16.7495ZM15.759 11.6436C15.759 11.151 15.5633 10.6788 15.2151 10.3306C14.8668 9.98231 14.3945 9.78662 13.902 9.78662C13.4095 9.78662 12.9372 9.98231 12.5889 10.3306C12.2407 10.6788 12.045 11.151 12.045 11.6436V20.6436C12.045 21.1361 12.2407 21.6083 12.5889 21.9565C12.9372 22.3048 13.4095 22.5005 13.902 22.5005C14.3945 22.5005 14.8668 22.3048 15.2151 21.9565C15.5633 21.6083 15.759 21.1361 15.759 20.6436V11.6436ZM25.959 4.65625C25.9577 4.16479 25.7614 3.69402 25.4132 3.34717C25.065 3.00031 24.5934 2.80611 24.102 2.80664C23.6105 2.80611 23.1389 3.00031 22.7908 3.34717C22.4426 3.69402 22.2463 4.16479 22.245 4.65625V24.3354C22.2567 24.8201 22.4576 25.281 22.8046 25.6196C23.1516 25.9582 23.6172 26.1476 24.102 26.1475C24.5868 26.1476 25.0525 25.9582 25.3995 25.6196C25.7465 25.281 25.9472 24.8201 25.959 24.3354V4.65625ZM36.159 11.6436C36.159 11.151 35.9634 10.6788 35.6151 10.3306C35.2669 9.98231 34.7945 9.78662 34.302 9.78662C33.8095 9.78662 33.3371 9.98231 32.9889 10.3306C32.6406 10.6788 32.445 11.151 32.445 11.6436V20.6436C32.445 21.1361 32.6406 21.6083 32.9889 21.9565C33.3371 22.3048 33.8095 22.5005 34.302 22.5005C34.5459 22.5006 34.7875 22.4527 35.0128 22.3594C35.2382 22.2661 35.443 22.1295 35.6154 21.957C35.7879 21.7846 35.9247 21.5799 36.0179 21.3545C36.1112 21.1291 36.1591 20.8875 36.159 20.6436V11.6436ZM46.347 16.7495C46.3472 16.5068 46.2997 16.2663 46.2071 16.042C46.1145 15.8177 45.9785 15.6137 45.8071 15.4419C45.6357 15.2701 45.4322 15.1341 45.2081 15.041C44.984 14.9479 44.7437 14.8997 44.501 14.8994C44.01 14.8989 43.5389 15.0932 43.1909 15.4395C42.8428 15.7857 42.6461 16.2556 42.644 16.7466V20.6387C42.6439 20.8819 42.6917 21.1224 42.7846 21.3472C42.8776 21.5719 43.0138 21.7762 43.1857 21.9482C43.3576 22.1203 43.5617 22.2569 43.7864 22.3501C44.011 22.4433 44.2518 22.4916 44.495 22.4917C44.7382 22.4916 44.979 22.4433 45.2037 22.3501C45.4283 22.2569 45.6324 22.1203 45.8043 21.9482C45.9761 21.7762 46.1124 21.5719 46.2054 21.3472C46.2983 21.1224 46.3461 20.8819 46.346 20.6387L46.347 16.7495ZM56.547 11.6436C56.5347 11.1607 56.3344 10.7019 55.9886 10.3647C55.6428 10.0276 55.179 9.83848 54.696 9.83838C54.213 9.83848 53.7492 10.0276 53.4034 10.3647C53.0577 10.7019 52.8573 11.1607 52.845 11.6436V20.6436C52.8449 20.8868 52.8926 21.1273 52.9856 21.3521C53.0785 21.5768 53.2148 21.7811 53.3867 21.9531C53.5586 22.1252 53.7627 22.2618 53.9874 22.355C54.212 22.4482 54.4528 22.4965 54.696 22.4966C54.9392 22.4965 55.18 22.4482 55.4047 22.355C55.6293 22.2618 55.8334 22.1252 56.0052 21.9531C56.1771 21.7811 56.3135 21.5768 56.4064 21.3521C56.4994 21.1273 56.5471 20.8868 56.547 20.6436V11.6436ZM66.753 4.65625C66.7531 4.41309 66.7053 4.17244 66.6124 3.94775C66.5194 3.72306 66.3831 3.51916 66.2112 3.34717C66.0393 3.17518 65.8352 3.0384 65.6106 2.94531C65.386 2.85223 65.1451 2.80469 64.902 2.80469C64.6588 2.80469 64.4181 2.85223 64.1934 2.94531C63.9688 3.0384 63.7647 3.17518 63.5928 3.34717C63.4209 3.51916 63.2846 3.72306 63.1916 3.94775C63.0986 4.17244 63.0509 4.41309 63.051 4.65625V24.3354C63.0361 24.6697 63.1119 25.0017 63.2703 25.2964C63.4288 25.5911 63.6639 25.8374 63.951 26.0093C64.2382 26.1808 64.5665 26.2715 64.901 26.2715C65.2355 26.2715 65.5638 26.1808 65.851 26.0093C66.1381 25.8374 66.3732 25.5911 66.5317 25.2964C66.6901 25.0017 66.7659 24.6697 66.751 24.3354L66.753 4.65625ZM76.953 11.6436C76.9522 11.3991 76.9032 11.157 76.8087 10.9316C76.7142 10.7062 76.5761 10.502 76.4023 10.3301C76.2286 10.1582 76.0226 10.0222 75.7962 9.93018C75.5698 9.8381 75.3274 9.79161 75.083 9.79346C74.84 9.79346 74.5993 9.84154 74.3748 9.93457C74.1503 10.0276 73.9463 10.1636 73.7745 10.3354C73.6027 10.5073 73.4664 10.7115 73.3735 10.936C73.2806 11.1606 73.2329 11.4015 73.233 11.6445V20.6445C73.2325 20.8879 73.2799 21.129 73.3726 21.354C73.4653 21.579 73.6015 21.7837 73.7733 21.9561C73.9451 22.1284 74.1492 22.265 74.374 22.3584C74.5987 22.4518 74.8396 22.5002 75.083 22.5005C75.3283 22.5029 75.5715 22.4565 75.7988 22.3643C76.026 22.2721 76.2328 22.136 76.407 21.9634C76.5813 21.7908 76.7196 21.5852 76.814 21.3589C76.9084 21.1325 76.957 20.8898 76.957 20.6445V11.6445L76.953 11.6436ZM87.138 16.7495C87.138 16.2581 86.9428 15.7865 86.5953 15.439C86.2478 15.0915 85.7765 14.8965 85.285 14.8965C84.7936 14.8965 84.3222 15.0915 83.9747 15.439C83.6272 15.7865 83.432 16.2581 83.432 16.7495V20.6396C83.4316 20.8833 83.4793 21.1244 83.5722 21.3496C83.6651 21.5748 83.8015 21.7797 83.9736 21.9521C84.1457 22.1246 84.3501 22.2616 84.5751 22.355C84.8002 22.4484 85.0414 22.4965 85.285 22.4966C85.5286 22.4963 85.7697 22.448 85.9946 22.3545C86.2195 22.261 86.4238 22.1241 86.5958 21.9517C86.7678 21.7792 86.9041 21.5748 86.9969 21.3496C87.0898 21.1245 87.1374 20.8832 87.137 20.6396V16.7495H87.138Z" fill="#333333"/>
<path d="M85.001 45.5454V45.7783H84.34V47.4976H84.068V45.7798H83.405V45.5464H85.005L85.001 45.5454ZM85.14 45.5454H85.5649L86.149 47.1455H86.158L86.723 45.5454H87.14V47.4946H86.8619V45.8945H86.8521L86.259 47.4946H86.002L85.424 45.8945H85.411V47.4946H85.139V45.5435L85.14 45.5454Z" fill="#333333"/>
</svg>
