<svg width="148" height="46" viewBox="0 0 148 46" fill="none" xmlns="http://www.w3.org/2000/svg">
<g clip-path="url(#clip0_2926_2661)">
<path d="M22.078 0.960938C17.7191 0.961135 13.4582 2.25387 9.83405 4.67566C6.20988 7.09746 3.38525 10.5396 1.71732 14.5667C0.0493935 18.5938 -0.38691 23.0251 0.463583 27.3001C1.31408 31.5752 3.41317 35.5021 6.49542 38.5842C9.57766 41.6663 13.5046 43.7652 17.7798 44.6155C22.0549 45.4658 26.4861 45.0293 30.5132 43.3612C34.5402 41.6931 37.9822 38.8683 40.4038 35.244C42.8254 31.6198 44.118 27.3588 44.118 22.9999C44.1177 17.1547 41.7955 11.549 37.6623 7.41595C33.529 3.28286 27.9232 0.960937 22.078 0.960938ZM32.186 32.7479C32.0919 32.9021 31.9684 33.0361 31.8224 33.1425C31.6764 33.2488 31.5109 33.3253 31.3354 33.3675C31.1598 33.4098 30.9776 33.417 30.7993 33.3888C30.6209 33.3605 30.4499 33.2974 30.296 33.2029C25.121 30.0419 18.607 29.3259 10.935 31.0789C10.5816 31.155 10.2125 31.0887 9.90762 30.8944C9.60276 30.7002 9.38674 30.3936 9.30636 30.0412C9.22598 29.6888 9.28772 29.3189 9.47821 29.0116C9.66869 28.7044 9.97257 28.4846 10.324 28.3999C18.724 26.4819 25.924 27.3079 31.73 30.8579C31.8841 30.952 32.0182 31.0756 32.1245 31.2215C32.2309 31.3674 32.3074 31.5329 32.3497 31.7084C32.3921 31.884 32.3994 32.0661 32.3713 32.2445C32.3432 32.4228 32.2803 32.5939 32.186 32.7479ZM34.886 26.7479C34.768 26.9403 34.6133 27.1075 34.4307 27.24C34.2481 27.3726 34.0412 27.4678 33.8217 27.5204C33.6023 27.573 33.3747 27.5818 33.1518 27.5463C32.929 27.5109 32.7153 27.4319 32.523 27.3139C26.599 23.6729 17.568 22.6139 10.561 24.7449C10.3451 24.8106 10.1184 24.8331 9.8938 24.8111C9.66921 24.7892 9.45115 24.7232 9.25206 24.617C9.05297 24.5107 8.87675 24.3663 8.73347 24.192C8.59019 24.0177 8.48265 23.8168 8.41699 23.6009C8.35133 23.385 8.32883 23.1583 8.35079 22.9337C8.37274 22.7092 8.43872 22.4911 8.54495 22.292C8.65118 22.0929 8.79558 21.9167 8.96992 21.7734C9.14425 21.6301 9.34509 21.5226 9.56099 21.4569C17.561 19.0279 27.516 20.2049 34.319 24.3849C34.7072 24.6232 34.9848 25.0058 35.091 25.4488C35.1971 25.8917 35.123 26.3586 34.885 26.7469L34.886 26.7479ZM35.118 20.4989C28.018 16.2799 16.295 15.8919 9.51799 17.9499C9.25896 18.0287 8.98694 18.0557 8.71747 18.0294C8.448 18.0031 8.18636 17.9239 7.94748 17.7965C7.70861 17.669 7.49717 17.4958 7.32525 17.2866C7.15332 17.0774 7.02428 16.8365 6.94549 16.5774C6.86669 16.3184 6.83969 16.0464 6.86603 15.7769C6.89236 15.5075 6.97151 15.2458 7.09896 15.0069C7.2264 14.7681 7.39966 14.5566 7.60882 14.3847C7.81798 14.2128 8.05896 14.0837 8.31799 14.0049C16.103 11.6419 29.045 12.0979 37.223 16.9529C37.4616 17.0879 37.6709 17.2691 37.8386 17.4859C38.0063 17.7027 38.1291 17.9508 38.1997 18.2157C38.2704 18.4805 38.2875 18.7568 38.2501 19.0283C38.2126 19.2999 38.1214 19.5612 37.9817 19.7971C37.8421 20.033 37.6567 20.2386 37.4366 20.4019C37.2165 20.5653 36.966 20.6831 36.6998 20.7485C36.4336 20.8138 36.157 20.8254 35.8862 20.7826C35.6155 20.7397 35.356 20.6433 35.123 20.4989H35.118ZM60.004 21.3069C56.198 20.3999 55.522 19.7629 55.522 18.4239C55.522 17.1599 56.712 16.3089 58.483 16.3089C60.3866 16.377 62.2145 17.0716 63.683 18.2849C63.7098 18.3047 63.7402 18.3189 63.7725 18.3267C63.8048 18.3346 63.8384 18.336 63.8712 18.3308C63.904 18.3256 63.9355 18.3139 63.9638 18.2964C63.9921 18.2789 64.0166 18.256 64.036 18.2289L65.886 15.6099C65.9227 15.558 65.9383 15.4941 65.9296 15.4311C65.9209 15.3682 65.8885 15.3109 65.839 15.2709C63.7791 13.5893 61.1898 12.6921 58.531 12.7389C54.423 12.7389 51.551 15.2049 51.551 18.7329C51.551 22.5159 54.028 23.8559 58.307 24.8899C61.947 25.7289 62.563 26.4309 62.563 27.6899C62.563 29.0819 61.321 29.9479 59.321 29.9479C57.053 29.9314 54.8801 29.0351 53.26 27.4479C53.2119 27.4058 53.1499 27.383 53.086 27.3839C53.0531 27.3862 53.021 27.3951 52.9917 27.4101C52.9623 27.425 52.9362 27.4457 52.915 27.4709L50.831 29.9499C50.7894 29.9997 50.7687 30.0636 50.7731 30.1283C50.7776 30.193 50.8069 30.2534 50.855 30.2969C53.1523 32.3784 56.145 33.5256 59.245 33.5129C63.672 33.5129 66.532 31.0939 66.532 27.3489C66.54 24.1889 64.648 22.4389 60.013 21.3109L60.004 21.3069ZM76.547 17.5539C75.6248 17.5414 74.7122 17.7426 73.8806 18.1416C73.0491 18.5406 72.3212 19.1267 71.754 19.8539V18.1149C71.7543 18.0491 71.7284 17.9858 71.6821 17.9389C71.6358 17.8921 71.5729 17.8655 71.507 17.8649H68.096C68.0301 17.8655 67.9672 17.8921 67.9209 17.9389C67.8746 17.9858 67.8487 18.0491 67.849 18.1149V37.4839C67.8487 37.5498 67.8746 37.6131 67.9209 37.66C67.9672 37.7068 68.0301 37.7334 68.096 37.7339H71.504C71.5699 37.7334 71.6328 37.7068 71.6791 37.66C71.7254 37.6131 71.7513 37.5498 71.751 37.4839V31.3709C72.3389 32.0655 73.074 32.6205 73.903 32.9957C74.732 33.3708 75.6342 33.5567 76.544 33.5399C80.11 33.5399 83.721 30.7949 83.721 25.5479C83.721 20.3009 80.115 17.5539 76.547 17.5539ZM79.76 25.5479C79.76 28.2189 78.115 30.0849 75.76 30.0849C75.19 30.0665 74.6297 29.9331 74.1126 29.6928C73.5954 29.4526 73.1321 29.1103 72.7505 28.6866C72.3688 28.263 72.0766 27.7666 71.8915 27.2272C71.7063 26.6879 71.632 26.1167 71.673 25.5479C71.6319 24.9791 71.7061 24.4079 71.8912 23.8685C72.0763 23.3291 72.3685 22.8327 72.7501 22.4089C73.1318 21.9852 73.5952 21.643 74.1124 21.4028C74.6296 21.1625 75.19 21.0293 75.76 21.0109C78.079 21.0109 79.76 22.9179 79.76 25.5469V25.5479ZM92.974 17.5539C91.3959 17.5837 89.8617 18.0791 88.5641 18.9778C87.2666 19.8765 86.2635 21.1386 85.6808 22.6056C85.0981 24.0725 84.9618 25.6789 85.289 27.223C85.6162 28.7671 86.3923 30.1802 87.5199 31.2847C88.6475 32.3892 90.0763 33.1359 91.6269 33.4312C93.1774 33.7264 94.7807 33.5569 96.2352 32.944C97.6898 32.3311 98.9309 31.3022 99.8026 29.9863C100.674 28.6704 101.138 27.1264 101.135 25.5479C101.13 24.4855 100.914 23.4347 100.5 22.4563C100.086 21.4779 99.4816 20.5914 98.7227 19.8479C97.9637 19.1045 97.0648 18.5189 96.0781 18.1252C95.0913 17.7314 94.0363 17.5373 92.974 17.5539ZM92.974 30.1109C92.3888 30.1054 91.8108 29.9815 91.2748 29.7466C90.7388 29.5116 90.2559 29.1706 89.8552 28.7441C89.4545 28.3175 89.1444 27.8143 88.9434 27.2646C88.7425 26.715 88.6549 26.1303 88.686 25.5459C88.648 24.9676 88.7293 24.3876 88.9248 23.8419C89.1202 23.2963 89.4256 22.7966 89.8221 22.3738C90.2186 21.9511 90.6978 21.6143 91.2298 21.3843C91.7618 21.1543 92.3354 21.0361 92.915 21.0369C93.5018 21.0409 94.0816 21.1637 94.6197 21.3978C95.1577 21.6319 95.6428 21.9726 96.0456 22.3993C96.4485 22.8259 96.7607 23.3297 96.9636 23.8803C97.1664 24.4309 97.2557 25.0169 97.226 25.6029C97.2624 26.183 97.1793 26.7643 96.9818 27.3109C96.7842 27.8575 96.4764 28.3577 96.0775 28.7804C95.6787 29.2031 95.1972 29.5393 94.6629 29.7682C94.1287 29.9971 93.5532 30.1137 92.972 30.1109H92.974ZM110.941 17.8649H107.186V14.0319C107.186 13.9662 107.16 13.9032 107.114 13.8566C107.068 13.8099 107.005 13.7835 106.939 13.7829H103.531C103.465 13.7832 103.402 13.8095 103.355 13.8561C103.308 13.9027 103.282 13.9659 103.281 14.0319V17.8649H101.644C101.578 17.8655 101.515 17.8921 101.469 17.9389C101.423 17.9858 101.397 18.0491 101.397 18.1149V21.0429C101.397 21.1088 101.423 21.1721 101.469 21.2189C101.515 21.2658 101.578 21.2924 101.644 21.2929H103.286V28.8709C103.286 31.9319 104.81 33.4849 107.818 33.4849C108.933 33.5115 110.035 33.2368 111.008 32.6899C111.047 32.6686 111.079 32.6373 111.101 32.5993C111.123 32.5613 111.134 32.518 111.134 32.4739V29.6839C111.134 29.6416 111.123 29.6 111.102 29.5631C111.082 29.5262 111.052 29.4951 111.016 29.4729C110.98 29.45 110.939 29.4369 110.896 29.435C110.854 29.433 110.812 29.4423 110.774 29.4619C110.156 29.7821 109.47 29.9475 108.774 29.9439C107.682 29.9439 107.192 29.4439 107.192 28.3359V21.2939H110.942C111.008 21.2934 111.071 21.2668 111.117 21.2199C111.163 21.1731 111.189 21.1098 111.189 21.0439V18.1159C111.19 18.0832 111.185 18.0507 111.173 18.0202C111.161 17.9897 111.143 17.9619 111.12 17.9385C111.097 17.9152 111.07 17.8967 111.039 17.8842C111.009 17.8717 110.977 17.8655 110.944 17.8659L110.941 17.8649ZM124.005 17.8799V17.4089C124.005 16.0239 124.537 15.4089 125.726 15.4089C126.382 15.4167 127.031 15.5364 127.647 15.7629C127.684 15.7753 127.724 15.7786 127.763 15.7726C127.802 15.7665 127.839 15.7513 127.871 15.7281C127.903 15.705 127.929 15.6745 127.946 15.6394C127.964 15.6042 127.973 15.5653 127.973 15.5259V12.6519C127.974 12.5984 127.957 12.5462 127.925 12.5031C127.893 12.4599 127.848 12.4283 127.797 12.4129C126.88 12.1326 125.924 11.9953 124.965 12.0059C121.82 12.0059 120.154 13.7779 120.154 17.1289V17.8499H118.516C118.45 17.8502 118.387 17.8765 118.34 17.9231C118.293 17.9697 118.267 18.0329 118.266 18.0989V21.0419C118.266 21.1082 118.293 21.1716 118.34 21.2184C118.386 21.2652 118.45 21.2917 118.516 21.2919H120.153V32.9839C120.153 33.0502 120.179 33.1138 120.226 33.1607C120.273 33.2076 120.337 33.2339 120.403 33.2339H123.809C123.842 33.2342 123.875 33.2279 123.905 33.2155C123.935 33.203 123.963 33.1846 123.986 33.1613C124.01 33.138 124.028 33.1104 124.04 33.0799C124.053 33.0495 124.059 33.0168 124.059 32.9839V21.2939H127.241L132.115 32.9839C131.562 34.2099 131.015 34.4549 130.275 34.4549C129.614 34.4387 128.967 34.255 128.396 33.9209C128.334 33.8895 128.263 33.8831 128.196 33.9029C128.164 33.9139 128.134 33.9315 128.108 33.9546C128.083 33.9776 128.063 34.0057 128.049 34.0369L126.894 36.5709C126.867 36.6285 126.864 36.6941 126.884 36.7544C126.904 36.8146 126.946 36.8649 127.002 36.8949C128.11 37.5231 129.365 37.8448 130.639 37.8269C133.155 37.8269 134.547 36.6529 135.771 33.4999L141.686 18.2209C141.701 18.1834 141.706 18.1429 141.702 18.1028C141.697 18.0627 141.683 18.0243 141.661 17.9908C141.638 17.9574 141.608 17.9299 141.572 17.9108C141.537 17.8916 141.497 17.8814 141.457 17.8809H137.909C137.857 17.8805 137.806 17.8964 137.764 17.9264C137.721 17.9563 137.689 17.9988 137.672 18.0479L134.036 28.4259L130.057 18.0409C130.039 17.9937 130.008 17.953 129.966 17.9242C129.925 17.8954 129.875 17.88 129.825 17.8799H124.003H124.005ZM116.431 17.8649H113.023C112.957 17.8652 112.893 17.8916 112.847 17.9385C112.8 17.9853 112.773 18.0487 112.773 18.1149V32.9839C112.773 33.0502 112.799 33.1138 112.846 33.1607C112.893 33.2076 112.957 33.2339 113.023 33.2339H116.431C116.497 33.2339 116.561 33.2076 116.608 33.1607C116.655 33.1138 116.681 33.0502 116.681 32.9839V18.1159C116.681 18.0831 116.675 18.0505 116.662 18.0201C116.65 17.9897 116.631 17.9621 116.608 17.9389C116.585 17.9156 116.557 17.8972 116.527 17.8847C116.496 17.8722 116.464 17.8658 116.431 17.8659V17.8649ZM114.747 11.0959C114.263 11.0955 113.791 11.2386 113.389 11.5069C112.986 11.7753 112.673 12.1569 112.488 12.6035C112.302 13.0501 112.254 13.5416 112.348 14.0159C112.442 14.4901 112.675 14.9258 113.016 15.2678C113.358 15.6097 113.794 15.8426 114.268 15.937C114.742 16.0313 115.234 15.9829 115.68 15.7978C116.127 15.6127 116.509 15.2993 116.777 14.8972C117.046 14.4951 117.189 14.0224 117.189 13.5389C117.189 13.218 117.126 12.9003 117.003 12.6038C116.88 12.3073 116.7 12.038 116.473 11.8111C116.246 11.5843 115.977 11.4043 115.68 11.2816C115.384 11.1589 115.066 11.0958 114.745 11.0959H114.747ZM144.597 22.6439C144.123 22.6418 143.661 22.4995 143.268 22.235C142.875 21.9704 142.569 21.5956 142.389 21.1575C142.208 20.7195 142.162 20.2379 142.255 19.7734C142.347 19.3089 142.576 18.8823 142.911 18.5473C143.245 18.2122 143.672 17.9838 144.136 17.8907C144.601 17.7977 145.083 17.8441 145.521 18.0243C145.959 18.2044 146.334 18.5101 146.598 18.903C146.863 19.2959 147.006 19.7582 147.008 20.2319C147.011 20.5495 146.951 20.8644 146.831 21.1584C146.711 21.4523 146.533 21.7194 146.309 21.944C146.084 22.1685 145.817 22.3461 145.523 22.4663C145.229 22.5865 144.915 22.6469 144.597 22.6439ZM144.61 18.0739C144.181 18.07 143.76 18.1937 143.401 18.4295C143.042 18.6653 142.762 19.0024 142.595 19.3981C142.428 19.7937 142.383 20.23 142.465 20.6515C142.547 21.073 142.752 21.4606 143.055 21.7651C143.357 22.0696 143.744 22.2772 144.165 22.3616C144.585 22.446 145.022 22.4033 145.419 22.239C145.815 22.0746 146.154 21.7961 146.392 21.4387C146.63 21.0813 146.756 20.6613 146.755 20.2319C146.757 19.949 146.702 19.6686 146.595 19.4068C146.488 19.145 146.33 18.9069 146.131 18.7064C145.931 18.5059 145.694 18.3469 145.432 18.2385C145.171 18.1301 144.891 18.0745 144.608 18.0749L144.61 18.0739ZM145.142 20.4739L145.821 21.4239H145.247L144.636 20.5529H144.112V21.4239H143.633V18.9119H144.754C145.341 18.9119 145.725 19.2119 145.725 19.7119C145.734 19.8876 145.68 20.0606 145.573 20.2005C145.467 20.3404 145.315 20.4383 145.143 20.4769L145.142 20.4739ZM144.737 19.3379H144.113V20.1379H144.737C145.048 20.1379 145.237 19.9859 145.237 19.7379C145.237 19.4899 145.045 19.3439 144.734 19.3439L144.737 19.3379Z" fill="#333333"/>
</g>
<defs>
<clipPath id="clip0_2926_2661">
<rect width="146.966" height="44.078" fill="white" transform="translate(0.0390015 0.960938)"/>
</clipPath>
</defs>
</svg>
