<svg width="92" height="32" viewBox="0 0 92 32" fill="none" xmlns="http://www.w3.org/2000/svg">
<g clip-path="url(#clip0_2926_2663)">
<path d="M5.26703 22.8C5.6222 23.7748 6.1678 24.6691 6.87203 25.431C7.55305 26.1571 8.38301 26.7275 9.30503 27.103C10.2748 27.496 11.3127 27.6931 12.359 27.683C13.3928 27.6909 14.4173 27.4867 15.369 27.083C16.2928 26.6904 17.127 26.1141 17.821 25.389C18.534 24.6379 19.0878 23.7505 19.449 22.78C19.8485 21.6954 20.0451 20.5467 20.029 19.391V0.125977H24.705V31.339H20.071V28.439C19.0365 29.5348 17.783 30.4009 16.392 30.981C14.9442 31.5826 13.3898 31.886 11.822 31.873C10.2271 31.886 8.64478 31.5906 7.16203 31.003C5.7551 30.446 4.47941 29.6025 3.41603 28.526C2.33533 27.4187 1.48552 26.1076 0.916025 24.669C0.290378 23.0731 -0.0190297 21.3709 0.0050254 19.657V0.125977H4.68703V19.389C4.67233 20.5517 4.86885 21.7074 5.26703 22.8ZM32.779 0.125977V11.497C33.82 10.4577 35.0443 9.61992 36.39 9.02598C37.7948 8.40882 39.3147 8.09727 40.849 8.11198C42.4573 8.10051 44.0508 8.41908 45.531 9.04798C48.3917 10.2447 50.6663 12.5193 51.863 15.38C52.4889 16.8454 52.8074 18.4236 52.799 20.017C52.809 21.6034 52.4903 23.1748 51.863 24.632C50.6567 27.481 48.3843 29.7456 45.531 30.942C44.0508 31.5709 42.4573 31.8894 40.849 31.878C39.3078 31.8911 37.781 31.5797 36.368 30.964C35.0128 30.373 33.7803 29.5335 32.734 28.489V31.343H28.275V0.125977H32.779ZM33.292 23.09C33.6809 24.0244 34.2489 24.8737 34.964 25.59C35.6833 26.3069 36.5315 26.8817 37.464 27.284C38.435 27.7041 39.4831 27.9166 40.541 27.908C41.5841 27.9136 42.6169 27.7011 43.573 27.284C44.4998 26.8847 45.3404 26.3094 46.048 25.59C46.7535 24.8658 47.3202 24.0185 47.72 23.09C48.1402 22.119 48.3527 21.0709 48.344 20.013C48.3513 18.9477 48.1389 17.8924 47.72 16.913C47.3236 15.9769 46.7567 15.1228 46.048 14.394C45.3418 13.6775 44.4988 13.1103 43.569 12.726C42.1368 12.1243 40.5581 11.9617 39.0334 12.2589C37.5086 12.556 36.1065 13.2995 35.005 14.395C34.2848 15.1188 33.7097 15.9739 33.311 16.914C32.8922 17.8934 32.6797 18.9487 32.687 20.014C32.6776 21.0696 32.8817 22.1162 33.287 23.091L33.292 23.09ZM55.341 15.421C55.9165 14.0232 56.7481 12.7452 57.793 11.653C59.4399 9.98862 61.5446 8.85182 63.8395 8.38722C66.1343 7.92263 68.5155 8.15124 70.68 9.04398C72.0406 9.6134 73.2699 10.4557 74.292 11.519C75.3188 12.5997 76.1219 13.8728 76.655 15.265C77.2301 16.7645 77.5174 18.359 77.502 19.965V21.436H59.002C59.1436 22.3371 59.4457 23.2055 59.894 24C60.3293 24.7747 60.8949 25.4685 61.566 26.051C62.2391 26.6333 63.0086 27.0935 63.84 27.411C64.7017 27.7409 65.6173 27.9074 66.54 27.902C67.8234 27.927 69.0932 27.6349 70.2367 27.0516C71.3801 26.4682 72.3619 25.6117 73.095 24.558L76.35 26.966C75.2245 28.5034 73.7457 29.7476 72.0383 30.5935C70.3309 31.4393 68.4451 31.8621 66.54 31.826C64.9142 31.8389 63.3014 31.5359 61.791 30.934C60.3589 30.3645 59.055 29.5145 57.956 28.434C56.8655 27.3558 55.9947 26.0761 55.392 24.666C54.1592 21.7083 54.143 18.3836 55.347 15.414L55.341 15.421ZM61.605 13.659C60.3223 14.7463 59.4364 16.2283 59.086 17.873H72.954C72.6319 16.2279 71.7589 14.7416 70.479 13.659C69.2271 12.6354 67.6597 12.0762 66.0425 12.0762C64.4254 12.0762 62.858 12.6354 61.606 13.659H61.605ZM85.929 14.172C84.9301 15.3499 84.4205 16.8658 84.505 18.408V31.339H80.005V8.59798H84.464V11.407C85.0059 10.5091 85.7622 9.75968 86.665 9.22598C87.6504 8.67161 88.7678 8.39511 89.898 8.42598H91.459V12.618H89.586C88.8999 12.5975 88.2175 12.7265 87.5862 12.996C86.9549 13.2656 86.3898 13.6692 85.93 14.179L85.929 14.172Z" fill="#333333"/>
</g>
<defs>
<clipPath id="clip0_2926_2663">
<rect width="91.454" height="31.748" fill="white" transform="translate(0.00500488 0.125977)"/>
</clipPath>
</defs>
</svg>
