<svg width="144" height="28" viewBox="0 0 144 28" fill="none" xmlns="http://www.w3.org/2000/svg">
<g clip-path="url(#clip0_2926_2665)">
<path d="M59.7971 7.90499C58.2589 7.21986 56.5776 6.91758 54.897 7.02399C52.5529 7.01348 50.2208 7.36012 47.981 8.05199C47.8399 8.09102 47.7151 8.17441 47.6251 8.28985C47.5351 8.40528 47.4846 8.54663 47.481 8.69299V8.76999L47.781 10.279L47.7881 10.307C47.8223 10.435 47.898 10.5481 48.0032 10.6286C48.1085 10.7091 48.2375 10.7525 48.3701 10.752C48.4337 10.7486 48.4967 10.7382 48.558 10.721L49.058 10.603C50.8662 10.0957 52.7306 9.81654 54.608 9.77199C55.5804 9.71569 56.5547 9.8429 57.4801 10.147C58.4691 10.522 58.48 11.161 58.485 12.22V13.803C58.372 13.803 58.1851 13.803 57.8851 13.803C56.0935 13.7981 54.3041 13.9281 52.5321 14.192C49.3081 14.692 46.641 15.459 46.658 19.901C46.658 25.54 51.8891 25.55 54.4021 25.555C55.8503 25.5433 57.2937 25.3875 58.7111 25.09C61.0571 24.545 61.656 23.8 61.625 21.469V12.09C61.625 10.66 61.6331 8.87999 59.7881 7.90499H59.7971ZM58.513 22.39C57.1994 22.8049 55.8286 23.0108 54.451 23V23.132V23C52.139 22.982 49.8811 22.718 49.878 19.769C49.893 17.423 51.144 17.144 52.729 16.79L52.839 16.766C54.7213 16.5191 56.6177 16.3968 58.5161 16.4V22.39H58.513ZM87.7821 12.09V21.466C87.8131 23.797 87.2141 24.542 84.8681 25.087C83.4507 25.3845 82.0072 25.5402 80.5591 25.552C78.0461 25.547 72.8161 25.536 72.8141 19.898C72.7971 15.456 75.4651 14.684 78.6891 14.189C80.4611 13.9251 82.2505 13.7951 84.0421 13.8C84.3371 13.8 84.5281 13.8 84.6421 13.8V12.22C84.6321 11.161 84.6261 10.52 83.6371 10.147C82.7117 9.8429 81.7374 9.71569 80.765 9.77199C78.8876 9.81653 77.0232 10.0957 75.2151 10.603L74.7151 10.721C74.6537 10.7382 74.5907 10.7486 74.5271 10.752C74.3945 10.7525 74.2655 10.7091 74.1602 10.6286C74.055 10.5481 73.9793 10.435 73.9451 10.307L73.938 10.279L73.638 8.76999V8.68999C73.6415 8.54363 73.6921 8.40228 73.7821 8.28685C73.8721 8.17141 73.9969 8.08802 74.138 8.04899C76.3778 7.35715 78.7099 7.01051 81.054 7.02099C82.7346 6.91458 84.4159 7.21686 85.9541 7.90199C87.7981 8.87699 87.794 10.657 87.791 12.087L87.7821 12.09ZM84.6671 16.396C82.7687 16.3928 80.8723 16.5151 78.9901 16.762L78.8801 16.786C77.2961 17.14 76.0441 17.419 76.0291 19.765C76.0291 22.714 78.2901 22.979 80.6021 22.996V23.128V22.996C81.9796 23.0068 83.3504 22.8009 84.664 22.386V16.396H84.6671ZM135.15 7.02099C127.866 7.03099 127.25 11.821 127.242 16.302C127.249 20.771 127.866 25.54 135.15 25.55C142.428 25.54 143.05 20.784 143.059 16.302C143.051 11.611 142.434 7.03099 135.15 7.02199V7.02099ZM135.15 22.933C130.732 22.914 130.51 20.646 130.48 16.304C130.51 11.938 130.732 9.65899 135.149 9.63999C139.568 9.65899 139.789 11.94 139.819 16.302C139.789 20.646 139.567 22.913 135.149 22.933H135.15ZM122.069 24.89L121.879 24.938C120.295 25.3667 118.66 25.5727 117.019 25.55H117.014C110.273 25.54 108.95 22.14 108.943 16.27C108.951 9.53699 111.085 7.03099 116.818 7.02199C118.305 7.00634 119.788 7.17428 121.233 7.52199L121.227 2.09899C121.219 1.86099 121.327 1.54999 121.889 1.44199L123.679 0.98999H123.779C124.19 0.99999 124.336 1.36699 124.337 1.67699V22.054C124.365 23.341 124.213 24.445 122.072 24.892L122.069 24.89ZM121.231 10.136C119.875 9.7974 118.484 9.62017 117.086 9.60799C113.635 9.63999 112.186 10.577 112.151 16.308C112.192 22.597 114.064 22.937 117.117 22.97V23.102V22.97C118.506 22.9611 119.887 22.7743 121.228 22.414V10.14L121.231 10.136ZM105.141 25.127H103.541C103.442 25.1289 103.343 25.1107 103.251 25.0735C103.158 25.0364 103.075 24.981 103.004 24.9107C102.934 24.8404 102.879 24.7566 102.841 24.6644C102.804 24.5722 102.786 24.4734 102.788 24.374V12.29C102.759 10.245 102.148 9.67599 99.946 9.64599C97.9692 9.68661 96.0048 9.97007 94.097 10.49V24.373C94.1024 24.4706 94.0876 24.5683 94.0537 24.66C94.0198 24.7517 93.9675 24.8355 93.8999 24.9062C93.8323 24.9768 93.751 25.0329 93.6609 25.0709C93.5708 25.1089 93.4738 25.128 93.3761 25.127H91.7421C91.6425 25.1292 91.5436 25.1112 91.4512 25.0741C91.3588 25.0371 91.2748 24.9817 91.2044 24.9114C91.1339 24.841 91.0785 24.7571 91.0413 24.6648C91.0041 24.5724 90.986 24.4735 90.9881 24.374V10.815C90.9252 10.5135 90.9245 10.2024 90.986 9.90069C91.0475 9.59896 91.17 9.31296 91.3459 9.0602C91.5218 8.80744 91.7474 8.59324 92.009 8.43071C92.2705 8.26819 92.5625 8.16075 92.8671 8.11499C95.1869 7.43075 97.5887 7.06342 100.007 7.02299C104.125 7.02799 105.884 8.51399 105.889 11.991V24.373C105.891 24.4725 105.873 24.5715 105.836 24.6639C105.799 24.7563 105.744 24.8402 105.673 24.9106C105.603 24.9811 105.519 25.0366 105.427 25.0737C105.335 25.1109 105.236 25.129 105.136 25.127H105.141ZM68.8671 25.454C69.5291 25.5155 70.1914 25.3382 70.7341 24.954C70.7786 24.9078 70.8129 24.8528 70.8348 24.7925C70.8567 24.7322 70.8656 24.668 70.8611 24.604C70.7972 24.1724 70.7107 23.7445 70.6021 23.322L70.597 23.29C70.5869 23.1729 70.5353 23.0632 70.4515 22.9807C70.3677 22.8983 70.2573 22.8484 70.14 22.84C70.123 22.84 70.1061 22.84 70.1151 22.84C70.1241 22.84 69.8841 22.829 69.6561 22.829C69.0001 22.808 68.4561 22.713 68.4451 21.753V1.67799C68.4521 1.59394 68.4425 1.50933 68.4165 1.42906C68.3906 1.3488 68.349 1.27449 68.2941 1.21047C68.2392 1.14644 68.1721 1.09397 68.0967 1.05612C68.0214 1.01827 67.9392 0.995792 67.8551 0.98999L67.7411 0.98999L65.9481 1.44999C65.7811 1.45676 65.6236 1.52895 65.5094 1.65095C65.3953 1.77296 65.3337 1.93497 65.3381 2.10199V21.825C65.3381 24.161 66.5951 25.449 68.8681 25.453L68.8671 25.454ZM43.537 25.127H30.6911C30.5916 25.129 30.4927 25.111 30.4003 25.0738C30.308 25.0367 30.2241 24.9814 30.1537 24.911C30.0833 24.8407 30.0278 24.7569 29.9906 24.6646C29.9534 24.5723 29.9351 24.4735 29.9371 24.374V22.805C29.9325 22.6467 29.9614 22.4893 30.0218 22.343C30.0823 22.1967 30.1731 22.0648 30.2881 21.956L40.515 10.066H30.4971C30.3976 10.068 30.2987 10.05 30.2063 10.0128C30.114 9.97574 30.0301 9.92036 29.9597 9.85004C29.8893 9.77973 29.8338 9.69591 29.7966 9.60362C29.7594 9.51134 29.7411 9.41248 29.7431 9.31299V8.20199C29.7412 8.10258 29.7593 8.00381 29.7965 7.91159C29.8337 7.81938 29.8891 7.73561 29.9594 7.6653C30.0297 7.595 30.1134 7.5396 30.2057 7.50243C30.2979 7.46527 30.3966 7.44709 30.496 7.44899H43.4761C43.5755 7.44709 43.6742 7.46527 43.7664 7.50243C43.8587 7.5396 43.9424 7.595 44.0127 7.6653C44.083 7.73561 44.1384 7.81938 44.1756 7.91159C44.2128 8.00381 44.2309 8.10258 44.229 8.20199V9.80199C44.2306 9.94903 44.2026 10.0949 44.1468 10.2309C44.0909 10.3669 44.0084 10.4904 43.9041 10.594L33.6501 22.509H43.5401C43.6396 22.5069 43.7386 22.5251 43.831 22.5622C43.9234 22.5994 44.0073 22.6549 44.0778 22.7253C44.1482 22.7957 44.2036 22.8796 44.2408 22.972C44.278 23.0645 44.2961 23.1634 44.2941 23.263V24.374C44.2961 24.4735 44.278 24.5724 44.2409 24.6647C44.2038 24.757 44.1484 24.8409 44.0781 24.9113C44.0078 24.9817 43.924 25.0372 43.8317 25.0745C43.7394 25.1117 43.6405 25.1299 43.541 25.128" fill="#333333"/>
<path d="M4.19101 5.46704C1.97001 5.46704 0.828012 11.531 0.947012 17.224H0.937012C1.05601 22.224 2.16101 27.01 4.35101 27.01C12.757 27.01 22.334 19.083 22.334 16.241C22.0885 15.0454 21.4986 13.9476 20.637 13.083C20.571 13.006 20.501 12.93 20.431 12.852C17.437 9.51104 11.222 5.46704 4.19101 5.46704Z" fill="#333333"/>
<path d="M0.945092 17.224C7.26109 18.707 14.0031 17.038 20.5361 13.144L20.6361 13.085C20.5694 13.0084 20.5028 12.9313 20.4361 12.854C17.4421 9.51302 11.2261 5.46802 4.19409 5.46802C1.97309 5.46802 0.831092 11.531 0.950092 17.224H0.945092Z" fill="#333333"/>
<path d="M0.939035 17.2211C1.05804 22.2211 2.16304 27.0091 4.35404 27.0091C12.76 27.0091 22.336 19.0841 22.336 16.2421C22.0895 15.0452 21.4986 13.9466 20.636 13.0811C14.07 17.0191 7.28703 18.7141 0.936035 17.2211" fill="#333333"/>
</g>
<defs>
<clipPath id="clip0_2926_2665">
<rect width="142.112" height="26.02" fill="white" transform="translate(0.937012 0.98999)"/>
</clipPath>
</defs>
</svg>
