<svg width="31" height="31" viewBox="0 0 31 31" fill="none" xmlns="http://www.w3.org/2000/svg">
<path d="M7.04623 18.6677L5.98919 22.6138L2.1257 22.6956C0.971079 20.554 0.316162 18.1038 0.316162 15.5C0.316162 12.9822 0.928494 10.6078 2.01389 8.51715H2.01472L5.45431 9.14775L6.96106 12.5667C6.6457 13.4861 6.47382 14.473 6.47382 15.5C6.47394 16.6146 6.67583 17.6825 7.04623 18.6677Z" fill="#FBBB00"/>
<path d="M30.4184 12.6635C30.5928 13.582 30.6837 14.5306 30.6837 15.5C30.6837 16.5871 30.5694 17.6475 30.3516 18.6703C29.6125 22.1509 27.6811 25.1901 25.0057 27.3408L25.0048 27.34L20.6725 27.119L20.0593 23.2913C21.8346 22.2501 23.2221 20.6208 23.9529 18.6703H15.8337V12.6635H24.0713H30.4184Z" fill="#518EF8"/>
<path d="M25.0045 27.34L25.0054 27.3408C22.4033 29.4323 19.0979 30.6838 15.4997 30.6838C9.71736 30.6838 4.69006 27.4518 2.12549 22.6956L7.04603 18.6678C8.32828 22.0899 11.6295 24.526 15.4997 24.526C17.1632 24.526 18.7217 24.0763 20.059 23.2913L25.0045 27.34Z" fill="#28B446"/>
<path d="M25.1914 3.81193L20.2725 7.83894C18.8885 6.97382 17.2525 6.47406 15.4997 6.47406C11.5419 6.47406 8.17892 9.02191 6.9609 12.5668L2.0145 8.51722H2.01367C4.5407 3.64508 9.6314 0.316345 15.4997 0.316345C19.1838 0.316345 22.5618 1.62867 25.1914 3.81193Z" fill="#F14336"/>
</svg>
