<svg width="24" height="24" viewBox="0 0 24 24" fill="none" xmlns="http://www.w3.org/2000/svg">
<g opacity="0.4">
<path d="M13.7 13.2C13.5283 13.3842 13.3213 13.532 13.0913 13.6345C12.8613 13.7369 12.6131 13.7921 12.3613 13.7965C12.1095 13.8009 11.8595 13.7546 11.626 13.6603C11.3925 13.566 11.1805 13.4257 11.0024 13.2476C10.8244 13.0696 10.684 12.8575 10.5897 12.624C10.4954 12.3905 10.4491 12.1405 10.4535 11.8887C10.458 11.637 10.5131 11.3887 10.6155 11.1587C10.718 10.9287 10.8658 10.7217 11.05 10.55M16.0875 15.5875C15.0191 16.4019 13.7182 16.8531 12.375 16.875C8 16.875 5.5 11.875 5.5 11.875C6.27743 10.4262 7.35571 9.1604 8.6625 8.16252L16.0875 15.5875ZM11.0625 7.02502C11.4927 6.92432 11.9332 6.87398 12.375 6.87502C16.75 6.87502 19.25 11.875 19.25 11.875C18.8706 12.5848 18.4182 13.253 17.9 13.8688L11.0625 7.02502Z" stroke="#202226" stroke-width="1.25" stroke-linecap="round" stroke-linejoin="round"/>
<path d="M5.5 5L19.25 18.75" stroke="#202226" stroke-width="1.25" stroke-linecap="round" stroke-linejoin="round"/>
</g>
</svg>
