<svg width="15" height="15" viewBox="0 0 15 15" fill="none" xmlns="http://www.w3.org/2000/svg">
<path opacity="0.5" d="M14.2616 13.6628L10.6916 9.94975C11.6095 8.85856 12.1125 7.48562 12.1125 6.05632C12.1125 2.71692 9.39558 0 6.05623 0C2.71688 0 0 2.71692 0 6.05632C0 9.39573 2.71688 12.1126 6.05623 12.1126C7.30987 12.1126 8.50452 11.7345 9.52592 11.0167L13.1231 14.7579C13.2734 14.9141 13.4756 15.0002 13.6923 15.0002C13.8975 15.0002 14.092 14.922 14.2398 14.7798C14.5536 14.4778 14.5636 13.9769 14.2616 13.6628ZM6.05623 1.57991C8.52453 1.57991 10.5326 3.58798 10.5326 6.05632C10.5326 8.52467 8.52453 10.5327 6.05623 10.5327C3.58792 10.5327 1.57989 8.52467 1.57989 6.05632C1.57989 3.58798 3.58792 1.57991 6.05623 1.57991Z" fill="#202226"/>
</svg>
