<svg width="51" height="51" viewBox="0 0 51 51" fill="none" xmlns="http://www.w3.org/2000/svg">
<path d="M43.2683 39.7717C35.399 43.2496 27.2267 45.8658 18.8006 47.6045C15.4408 48.2978 12.0532 46.5532 10.6663 43.4151C7.18835 35.5458 4.57223 27.3737 2.83354 18.9476C2.14023 15.5878 3.88486 12.2002 7.02269 10.8134C14.892 7.33549 23.0641 4.71937 31.4901 2.98068C34.8503 2.28728 38.2379 4.0319 39.6247 7.16974C43.1026 15.039 45.7187 23.2111 47.4574 31.6372C48.1508 34.9973 46.4065 38.3848 43.2683 39.7717Z" fill="url(#paint0_linear_59_137)"/>
<path d="M37.9938 9.2109C36.7634 6.42643 33.7575 4.87812 30.7758 5.49333C23.2987 7.03652 16.0471 9.35797 9.06393 12.4439C6.27955 13.6746 4.73134 16.6808 5.34645 19.6623C6.88964 27.1393 9.21109 34.3909 12.2969 41.3738C13.5277 44.1585 16.5339 45.7067 19.5153 45.0913C26.9924 43.5484 34.2441 41.2269 41.2268 38.1408C44.0116 36.9103 45.5598 33.9041 44.9443 30.9224C43.4015 23.4456 41.0801 16.194 37.9938 9.2109Z" fill="url(#paint1_linear_59_137)"/>
<path d="M10.3316 42.6517C10.4421 42.9067 10.5534 43.1614 10.6659 43.4157C12.0527 46.5535 15.4403 48.2981 18.8004 47.6047C27.2265 45.866 35.3986 43.2499 43.2678 39.772C46.406 38.3851 48.1503 34.9976 47.457 31.6378C47.4009 31.3654 47.3436 31.0934 47.2858 30.8216L10.3316 42.6517Z" fill="url(#paint2_linear_59_137)"/>
<path d="M45.1233 38.5898C44.8894 38.7948 44.6415 38.9853 44.3789 39.161C44.0323 39.3928 43.6607 39.5983 43.2683 39.7717C42.2743 40.211 41.2754 40.6362 40.2717 41.0482C36.9802 42.3992 33.6376 43.601 30.2475 44.6542L13.9958 36.2843C13.5177 36.1621 13.1113 35.8064 12.9497 35.3016L9.40434 24.2268C9.27956 23.8371 9.3251 23.4338 9.49821 23.0967C9.67191 22.7595 9.97452 22.4886 10.3637 22.364C10.868 22.2026 11.3944 22.3266 11.7712 22.645C11.7712 22.645 16.1027 24.8356 16.1954 24.8809C16.6356 24.3981 17.358 24.2476 17.9666 24.561L21.7053 26.4925L28.0358 29.763L45.1233 38.5898Z" fill="url(#paint3_linear_59_137)"/>
<path d="M45.1231 38.5899C44.8891 38.7949 44.6412 38.9855 44.3786 39.1612C44.0321 39.3929 43.6605 39.5984 43.268 39.7718C42.274 40.2111 41.2752 40.6363 40.2714 41.0483L24.4949 32.9233C24.0168 32.8011 23.6106 32.4454 23.449 31.9405L21.1025 24.6104C20.853 23.8312 21.2826 22.9971 22.0618 22.7476C22.5658 22.5863 23.0921 22.71 23.4693 23.0283L26.3555 24.5149L47.2747 35.2884C46.8769 36.5561 46.1355 37.7035 45.1231 38.5899Z" fill="url(#paint4_linear_59_137)"/>
<path d="M45.8409 24.8043C45.981 25.3269 46.1172 25.8505 46.25 26.3754C46.477 27.2695 46.6924 28.1667 46.8982 29.0669L37.4455 24.1985C36.9213 24.0484 36.4797 23.6489 36.3011 23.0909C36.1086 22.4895 36.2709 21.8595 36.6723 21.4278C36.8627 21.2227 37.1067 21.0622 37.3922 20.9709C37.9502 20.7922 38.5323 20.9199 38.9588 21.2592L45.8409 24.8043Z" fill="url(#paint5_linear_59_137)"/>
<path d="M46.2485 26.3759C46.4755 27.27 46.6909 28.1672 46.8967 29.0674C47.0928 29.921 47.2796 30.778 47.4568 31.6377C47.7146 32.8853 47.6353 34.137 47.2743 35.2885C46.8765 36.5563 46.1351 37.7036 45.1227 38.5901C44.8887 38.7951 44.6408 38.9856 44.3783 39.1613L29.287 31.3893C28.8097 31.2668 28.4027 30.9113 28.2411 30.4065L24.6957 19.3317C24.571 18.9419 24.6165 18.5387 24.7893 18.2017C24.963 17.8644 25.2659 17.5935 25.6551 17.4689C26.1594 17.3074 26.6858 17.4315 27.0627 17.7498C27.0627 17.7498 31.3947 19.9403 31.4868 19.9858C31.9267 19.5031 32.6503 19.3522 33.2585 19.6657L36.6708 21.4283L46.2485 26.3759Z" fill="url(#paint6_linear_59_137)"/>
<path d="M25.0655 32.7618C24.1501 33.0875 23.2364 32.7371 23.0248 31.9791L21.034 24.8481C20.8224 24.09 21.393 23.2112 22.3083 22.8856C23.2236 22.5599 24.1371 22.9106 24.3487 23.6686L26.3395 30.7997C26.5511 31.5577 25.9804 32.4362 25.0655 32.7618Z" fill="#5CCD11"/>
<path d="M21.2673 31.1201L17.4173 28.825L18.9926 26.3123C19.4597 25.5671 19.2317 24.7229 18.4833 24.4263C17.7349 24.1297 16.7498 24.4932 16.2828 25.2383L13.8651 29.0954L12.4248 23.7621C12.2259 23.0256 11.3679 22.6858 10.5085 23.0029C9.64911 23.32 9.11379 24.1741 9.31269 24.9106L12.1397 35.3793C12.3386 36.1159 13.1964 36.4558 14.0558 36.1387C14.9151 35.8216 15.4508 34.9674 15.2519 34.2309L14.8837 32.8674L15.7084 31.5513L19.2325 33.6525C19.9122 34.0448 20.9191 33.7962 21.4808 33.0971C22.0428 32.3979 21.9472 31.5127 21.2673 31.1201Z" fill="#5CCD11"/>
<path d="M36.5596 26.2244L32.7096 23.9293L34.2848 21.4167C34.7516 20.6716 34.5236 19.8274 33.7755 19.5307C33.0271 19.2341 32.0421 19.5976 31.575 20.3428L29.1573 24.1997L27.7171 18.8666C27.5182 18.13 26.6604 17.7901 25.8007 18.1074C24.9413 18.4245 24.406 19.2785 24.6049 20.015L27.432 30.4836C27.6309 31.2201 28.4886 31.56 29.348 31.2429C30.2077 30.9257 30.743 30.0716 30.5441 29.3351L30.1759 27.9717L31.0007 26.6559L34.5247 28.7568C35.2046 29.1494 36.2114 28.9005 36.7734 28.2013C37.335 27.5022 37.2394 26.617 36.5596 26.2244Z" fill="#5CCD11"/>
<path d="M39.6262 21.9394C39.8462 22.7578 39.2538 23.707 38.3031 24.0594C37.3525 24.4117 36.4033 24.0339 36.1833 23.2155C35.9633 22.3972 36.5557 21.4479 37.5063 21.0955C38.4569 20.7432 39.4062 21.121 39.6262 21.9394Z" fill="#5CCD11"/>
<path d="M36.5596 26.2244L32.7096 23.9293L34.2848 21.4167C34.7516 20.6716 34.5236 19.8274 33.7755 19.5307C33.0271 19.2341 32.0421 19.5976 31.575 20.3428L29.1573 24.1997L27.7171 18.8666C27.5182 18.13 26.6604 17.7901 25.8007 18.1074C24.9413 18.4245 24.406 19.2785 24.6049 20.015L27.432 30.4836C27.6309 31.2201 28.4886 31.56 29.348 31.2429C30.2077 30.9257 30.743 30.0716 30.5441 29.3351L30.1759 27.9717L31.0007 26.6559L34.5247 28.7568C35.2046 29.1494 36.2114 28.9005 36.7734 28.2013C37.335 27.5022 37.2394 26.617 36.5596 26.2244Z" fill="#5CCD11"/>
<defs>
<linearGradient id="paint0_linear_59_137" x1="8.36117" y1="8.61548" x2="52.7404" y2="52.711" gradientUnits="userSpaceOnUse">
<stop stop-color="#FFFCF8"/>
<stop offset="0.1875" stop-color="#FAF8F6"/>
<stop offset="0.4041" stop-color="#ECEEF2"/>
<stop offset="0.6353" stop-color="#D5DCEA"/>
<stop offset="0.875" stop-color="#B5C4DF"/>
<stop offset="1" stop-color="#A1B5D8"/>
</linearGradient>
<linearGradient id="paint1_linear_59_137" x1="19.9101" y1="24.2172" x2="-56.2499" y2="8.57493" gradientUnits="userSpaceOnUse">
<stop stop-color="#A1B5D8" stop-opacity="0"/>
<stop offset="0.3094" stop-color="#90A2BD" stop-opacity="0.309804"/>
<stop offset="0.7554" stop-color="#7C8B9C" stop-opacity="0.756863"/>
<stop offset="1" stop-color="#748290"/>
</linearGradient>
<linearGradient id="paint2_linear_59_137" x1="29.8128" y1="39.8738" x2="31.7138" y2="45.8119" gradientUnits="userSpaceOnUse">
<stop stop-color="#A1B5D8" stop-opacity="0"/>
<stop offset="0.3094" stop-color="#90A2BD" stop-opacity="0.309804"/>
<stop offset="0.7554" stop-color="#7C8B9C" stop-opacity="0.756863"/>
<stop offset="1" stop-color="#748290"/>
</linearGradient>
<linearGradient id="paint3_linear_59_137" x1="23.2482" y1="34.2745" x2="-3.02344" y2="24.2379" gradientUnits="userSpaceOnUse">
<stop stop-color="#A1B5D8" stop-opacity="0"/>
<stop offset="0.3094" stop-color="#90A2BD" stop-opacity="0.309804"/>
<stop offset="0.7554" stop-color="#7C8B9C" stop-opacity="0.756863"/>
<stop offset="1" stop-color="#748290"/>
</linearGradient>
<linearGradient id="paint4_linear_59_137" x1="29.7604" y1="31.6604" x2="14.2554" y2="29.7887" gradientUnits="userSpaceOnUse">
<stop stop-color="#A1B5D8" stop-opacity="0"/>
<stop offset="0.3094" stop-color="#90A2BD" stop-opacity="0.309804"/>
<stop offset="0.7554" stop-color="#7C8B9C" stop-opacity="0.756863"/>
<stop offset="1" stop-color="#748290"/>
</linearGradient>
<linearGradient id="paint5_linear_59_137" x1="43.5209" y1="25.4681" x2="31.1191" y2="19.0812" gradientUnits="userSpaceOnUse">
<stop stop-color="#A1B5D8" stop-opacity="0"/>
<stop offset="0.3094" stop-color="#90A2BD" stop-opacity="0.309804"/>
<stop offset="0.7554" stop-color="#7C8B9C" stop-opacity="0.756863"/>
<stop offset="1" stop-color="#748290"/>
</linearGradient>
<linearGradient id="paint6_linear_59_137" x1="36.8723" y1="28.5111" x2="11.2946" y2="24.7582" gradientUnits="userSpaceOnUse">
<stop stop-color="#A1B5D8" stop-opacity="0"/>
<stop offset="0.3094" stop-color="#90A2BD" stop-opacity="0.309804"/>
<stop offset="0.7554" stop-color="#7C8B9C" stop-opacity="0.756863"/>
<stop offset="1" stop-color="#748290"/>
</linearGradient>
</defs>
</svg>
