<svg width="57" height="57" viewBox="0 0 57 57" fill="none" xmlns="http://www.w3.org/2000/svg">
<path d="M24.9486 51.1596C18.0595 46.0058 11.7728 40.1654 6.12665 33.6736C3.87526 31.0851 3.73515 27.2772 5.79042 24.53C10.9442 17.6409 16.7845 11.3545 23.2762 5.70834C25.8647 3.45695 29.6726 3.31684 32.4196 5.37191C39.3087 10.5257 45.5951 16.3659 51.2413 22.8577C53.4929 25.4464 53.633 29.2543 51.5779 32.0013C46.4241 38.8904 40.5839 45.1768 34.0922 50.8229C31.5034 53.0746 27.6958 53.2149 24.9486 51.1596Z" fill="url(#paint0_linear_59_142)"/>
<path d="M48.9994 31.5806C50.8232 29.1432 50.699 25.7642 48.7011 23.4669C43.6906 17.7065 38.1122 12.5241 31.9992 7.95048C29.5615 6.12697 26.1823 6.25131 23.8853 8.24904C18.1249 13.2596 12.9425 18.8379 8.36904 24.9507C6.54531 27.3886 6.66965 30.7678 8.66759 33.0646C13.6779 38.8253 19.2562 44.0077 25.3693 48.5809C27.807 50.4048 31.1861 50.2805 33.4832 48.2823C39.2436 43.2722 44.426 37.6939 48.9994 31.5806Z" fill="url(#paint1_linear_59_142)"/>
<path d="M6.29224 23.8646C6.12417 24.0859 5.95678 24.3078 5.79028 24.5305C3.73522 27.2775 3.87533 31.0853 6.12694 33.6741C11.7731 40.1658 18.0595 46.006 24.9486 51.1598C27.6958 53.2151 31.5035 53.0748 34.092 50.8234C34.3019 50.641 34.5109 50.4577 34.7194 50.2741L6.29224 23.8646Z" fill="url(#paint2_linear_59_142)"/>
<path d="M32.5452 51.8547L31.2031 15.3741C31.2928 14.4306 30.9588 13.4576 30.2109 12.7628C28.9352 11.5776 26.9402 11.6508 25.755 12.9265C25.06 13.6746 24.7986 14.6698 24.9576 15.6039L26.295 51.9577C28.2892 52.866 30.5906 52.8234 32.5452 51.8547Z" fill="url(#paint3_linear_59_142)"/>
<path d="M26.4514 20.7002L22.5707 17.095L11.3946 29.125L11.7855 39.7468C15.8889 43.8589 20.2799 47.6671 24.9483 51.1594C25.7644 51.77 26.6745 52.1853 27.6182 52.4105L26.4514 20.7002Z" fill="url(#paint4_linear_59_142)"/>
<path d="M38.6946 33.9518C38.7078 32.5141 38.1394 31.0763 37.0034 30.0209C35.2065 28.3516 33.4604 27.9053 32.2258 27.8501L32.3556 26.1854L28.7799 22.8635L17.6038 34.8935L17.9958 45.5473C20.2398 47.4999 22.5578 49.371 24.9487 51.1598C27.6959 53.215 31.5035 53.0747 34.092 50.8233C35.8229 49.3181 37.5069 47.7668 39.1442 46.1712L38.6946 33.9518Z" fill="url(#paint5_linear_59_142)"/>
<path d="M22.5717 17.0952L26.4514 20.6979L15.2745 32.7302L11.3948 29.1276L22.5717 17.0952Z" fill="white"/>
<path d="M37.0039 30.0175C34.1605 27.3768 31.443 27.798 30.6817 27.9874L32.3567 26.1839L28.7814 22.8635L17.6038 34.8984L21.484 38.502L27.0985 32.4568C28.721 30.71 30.7867 30.0976 32.3111 31.5133C33.8352 32.9288 32.5138 34.852 30.582 36.9319L25.5857 42.3114L29.4659 45.915L37.2783 37.5034C39.2697 35.3593 39.1468 32.0077 37.0039 30.0175Z" fill="white"/>
<path d="M30.3744 17.2176C29.189 18.4939 27.1943 18.5681 25.9187 17.3834C24.6431 16.1988 24.5697 14.2039 25.7551 12.9276C26.9405 11.6514 28.9356 11.5771 30.2112 12.7618C31.4868 13.9464 31.5598 15.9413 30.3744 17.2176Z" fill="white"/>
<defs>
<linearGradient id="paint0_linear_59_142" x1="33.5461" y1="13.1601" x2="26.2254" y2="35.9046" gradientUnits="userSpaceOnUse">
<stop stop-color="#0077B5"/>
<stop offset="1" stop-color="#0066B2"/>
</linearGradient>
<linearGradient id="paint1_linear_59_142" x1="31.7932" y1="37.3484" x2="10.4352" y2="-25.0458" gradientUnits="userSpaceOnUse">
<stop stop-color="#0066B2" stop-opacity="0"/>
<stop offset="1" stop-color="#07485E"/>
</linearGradient>
<linearGradient id="paint2_linear_59_142" x1="20.1855" y1="37.4139" x2="14.4955" y2="43.5387" gradientUnits="userSpaceOnUse">
<stop stop-color="#0066B2" stop-opacity="0"/>
<stop offset="1" stop-color="#07485E"/>
</linearGradient>
<linearGradient id="paint3_linear_59_142" x1="28.6178" y1="30.0997" x2="27.8401" y2="8.96297" gradientUnits="userSpaceOnUse">
<stop stop-color="#0066B2" stop-opacity="0"/>
<stop offset="1" stop-color="#07485E"/>
</linearGradient>
<linearGradient id="paint4_linear_59_142" x1="25.5935" y1="46.2559" x2="13.1373" y2="15.414" gradientUnits="userSpaceOnUse">
<stop stop-color="#0066B2" stop-opacity="0"/>
<stop offset="1" stop-color="#07485E"/>
</linearGradient>
<linearGradient id="paint5_linear_59_142" x1="28.8544" y1="53.5108" x2="27.7633" y2="23.8588" gradientUnits="userSpaceOnUse">
<stop stop-color="#0066B2" stop-opacity="0"/>
<stop offset="1" stop-color="#07485E"/>
</linearGradient>
</defs>
</svg>
