<svg width="55" height="56" viewBox="0 0 55 56" fill="none" xmlns="http://www.w3.org/2000/svg">
<path d="M48.5419 37.931C41.7228 43.1772 34.4049 47.6582 26.6322 51.347C23.5329 52.8179 19.828 51.9271 17.736 49.2078C12.4898 42.3888 8.00895 35.071 4.32017 27.2984C2.84928 24.1991 3.74008 20.4942 6.45914 18.4023C13.2782 13.1561 20.5959 8.67528 28.3686 4.9865C31.4681 3.51545 35.173 4.40625 37.2649 7.12531C42.5111 13.9443 46.9919 21.2621 50.6807 29.0347C52.1517 32.1343 51.2612 35.839 48.5419 37.931Z" fill="url(#paint0_linear_59_148)"/>
<path d="M36.165 9.49552C34.3089 7.08262 31.0214 6.29195 28.2709 7.59723C21.3737 10.8709 14.8802 14.847 8.82894 19.5021C6.41619 21.3585 5.62568 24.6462 6.93081 27.3965C10.2044 34.2937 14.1806 40.7872 18.8355 46.8382C20.692 49.2512 23.9798 50.0417 26.7299 48.7363C33.6273 45.4629 40.1207 41.4868 46.1716 36.8316C48.5847 34.9753 49.3753 31.6876 48.0697 28.9372C44.7965 22.0401 40.8203 15.5466 36.165 9.49552Z" fill="url(#paint1_linear_59_148)"/>
<path d="M17.2302 48.5453C17.398 48.7667 17.5666 48.9877 17.7363 49.2081C19.8281 51.9271 23.533 52.8179 26.6326 51.3469C34.4052 47.6581 41.723 43.1772 48.542 37.931C51.2613 35.839 52.1519 32.1343 50.681 29.035C50.5618 28.7838 50.4416 28.5331 50.3209 28.2828L17.2302 48.5453Z" fill="url(#paint2_linear_59_148)"/>
<path d="M48.5422 37.9309C51.2615 35.8388 52.152 32.1341 50.681 29.0346C49.3317 26.1911 47.8757 23.409 46.3157 20.6895L28.8342 16.4863C26.2831 15.7879 23.4606 16.1038 21.0269 17.594C16.3513 20.457 14.8819 26.5684 17.7449 31.2439C19.9937 34.9165 26.0003 37.7845 30.1396 38.7063L43.1648 41.838C44.9897 40.5867 46.7827 39.2845 48.5422 37.9309Z" fill="url(#paint3_linear_59_148)"/>
<path d="M34.6769 20.876C37.9077 26.1522 36.4052 37.2507 33.9747 38.739C31.7877 40.0782 20.9499 36.478 17.7449 31.2439C14.8819 26.5684 16.3513 20.457 21.0269 17.594C25.7025 14.731 31.8139 16.2004 34.6769 20.876Z" fill="white"/>
<path d="M23.0763 20.9414C22.6955 21.1745 22.3492 21.4417 22.038 21.736C22.8156 21.7529 23.5686 22.1522 24.0048 22.8645C24.6867 23.9781 24.3368 25.4334 23.2231 26.1153C22.2032 26.7399 20.8968 26.4981 20.1604 25.5971C20.0619 26.7592 20.3141 27.9489 20.9603 29.0042C22.6247 31.7224 26.2708 32.5196 29.1038 30.7849C31.9367 29.0502 32.8841 25.4402 31.2197 22.7221C29.5552 20.0037 25.9092 19.2067 23.0763 20.9414Z" fill="#E94F3C"/>
<defs>
<linearGradient id="paint0_linear_59_148" x1="7.23774" y1="15.9495" x2="60.8142" y2="48.2526" gradientUnits="userSpaceOnUse">
<stop stop-color="#41A4C3"/>
<stop offset="0.4138" stop-color="#3CA1BE"/>
<stop offset="0.8912" stop-color="#2E98B1"/>
<stop offset="1" stop-color="#2A95AD"/>
</linearGradient>
<linearGradient id="paint1_linear_59_148" x1="29.9593" y1="28.0758" x2="-47.737" y2="30.9555" gradientUnits="userSpaceOnUse">
<stop stop-color="#2A95AD" stop-opacity="0"/>
<stop offset="0.5189" stop-color="#1F879A" stop-opacity="0.517647"/>
<stop offset="1" stop-color="#177D8E"/>
</linearGradient>
<linearGradient id="paint2_linear_59_148" x1="35.35" y1="40.9855" x2="37.8089" y2="45.0011" gradientUnits="userSpaceOnUse">
<stop stop-color="#2A95AD" stop-opacity="0"/>
<stop offset="0.5189" stop-color="#1F879A" stop-opacity="0.517647"/>
<stop offset="1" stop-color="#177D8E"/>
</linearGradient>
<linearGradient id="paint3_linear_59_148" x1="48.8769" y1="32.2573" x2="25.3651" y2="26.6041" gradientUnits="userSpaceOnUse">
<stop stop-color="#2A95AD" stop-opacity="0"/>
<stop offset="0.5189" stop-color="#1F879A" stop-opacity="0.517647"/>
<stop offset="1" stop-color="#177D8E"/>
</linearGradient>
</defs>
</svg>
