<svg width="55" height="55" viewBox="0 0 55 55" fill="none" xmlns="http://www.w3.org/2000/svg">
<path d="M29.4994 50.217C21.5434 46.9424 13.9997 42.8528 6.91395 37.9728C4.08856 36.027 3.00398 32.3741 4.30985 29.2014C7.5844 21.2454 11.6739 13.7019 16.5539 6.61622C18.4997 3.79083 22.1525 2.70625 25.325 4.01197C33.281 7.28652 40.8245 11.376 47.9102 16.256C50.7359 18.202 51.8204 21.8548 50.5147 25.0272C47.2402 32.9833 43.1507 40.5267 38.2707 47.6125C36.3247 50.4381 32.6721 51.5228 29.4994 50.217Z" fill="url(#paint0_linear_59_145)"/>
<path d="M47.9125 25.2625C49.0713 22.4475 48.1091 19.206 45.6018 17.4791C39.3139 13.149 32.6201 9.52011 25.5602 6.61405C22.745 5.4555 19.5034 6.41797 17.7766 8.92508C13.4465 15.213 9.81765 21.9067 6.91173 28.9664C5.75304 31.7818 6.7155 35.0234 9.22276 36.7499C15.5105 41.0803 22.2043 44.7092 29.2641 47.6148C32.0794 48.7738 35.321 47.8113 37.0476 45.3038C41.3779 39.0163 45.0067 32.3226 47.9125 25.2625Z" fill="url(#paint1_linear_59_145)"/>
<path d="M4.62943 28.4315C4.5218 28.6877 4.41498 28.9443 4.30923 29.2014C3.00351 32.3739 4.08808 36.0267 6.91374 37.9727C13.9995 42.8527 21.5429 46.9422 29.499 50.2167C32.6717 51.5226 36.3242 50.4379 38.2701 47.6125C38.4279 47.3835 38.5846 47.154 38.7408 46.9241L4.62943 28.4315Z" fill="url(#paint2_linear_59_145)"/>
<path d="M29.4999 50.2172C32.6726 51.523 36.3252 50.4383 38.2712 47.6126C40.4052 44.5144 42.3879 41.3285 44.2175 38.0586L40.7198 26.279C40.5911 25.5803 40.2609 25.3429 39.6036 24.8009C39.0711 24.3615 38.5049 23.9518 37.9118 23.5994C36.0154 22.4724 34.1156 21.3484 32.1865 20.2786C29.3538 18.7079 26.5009 17.1734 23.4862 15.9653C22.1864 15.4443 20.3738 15.7027 19.5264 16.9349C19.0911 17.5681 18.6055 18.1692 18.2021 18.8218C16.7323 21.1982 15.3742 23.6334 14.3928 26.262C14.0642 27.1423 13.9877 27.5851 14.2917 28.34L19.3866 45.4996C22.6776 47.2237 26.05 48.7971 29.4999 50.2172Z" fill="url(#paint3_linear_59_145)"/>
<path d="M23.9106 35.0097C21.1238 33.3756 18.9561 32.1304 16.8185 30.8362C16.1663 30.4409 15.5264 29.9764 15.0039 29.4265C14.0419 28.4148 13.8389 27.2001 14.3341 25.8735C15.3155 23.2449 16.6736 20.8097 18.1434 18.4333C18.5471 17.7809 19.0327 17.1798 19.468 16.5465C20.3149 15.3141 22.1279 15.0556 23.4275 15.5768C26.4425 16.785 29.2951 18.3194 32.1281 19.8902C34.0572 20.96 35.9567 22.0839 37.8531 23.2109C38.4462 23.5633 39.0123 23.9733 39.5449 24.4124C40.7185 25.3801 41.0327 26.6127 40.5491 28.0567C39.8947 30.0104 39 31.856 37.9573 33.6225C37.1682 34.9595 36.2894 36.2451 35.4114 37.5271C34.4424 38.9419 32.6627 39.1261 31.4518 38.5693C28.7072 37.3074 25.9872 35.9932 23.9106 35.0097Z" fill="url(#paint4_linear_59_145)"/>
<path d="M23.5388 29.3071C25.9811 29.1756 28.364 29.0466 30.8181 28.9142C29.5928 26.7888 28.401 24.7215 27.1763 22.5975L23.5388 29.3071Z" fill="white"/>
<defs>
<linearGradient id="paint0_linear_59_145" x1="27.8379" y1="3.45739" x2="26.7124" y2="66.0086" gradientUnits="userSpaceOnUse">
<stop stop-color="#FFFCF8"/>
<stop offset="0.1875" stop-color="#FAF8F6"/>
<stop offset="0.4041" stop-color="#ECEEF2"/>
<stop offset="0.6353" stop-color="#D5DCEA"/>
<stop offset="0.875" stop-color="#B5C4DF"/>
<stop offset="1" stop-color="#A1B5D8"/>
</linearGradient>
<linearGradient id="paint1_linear_59_145" x1="24.5657" y1="22.5909" x2="-16.8412" y2="-43.2155" gradientUnits="userSpaceOnUse">
<stop stop-color="#A1B5D8" stop-opacity="0"/>
<stop offset="0.3094" stop-color="#90A2BD" stop-opacity="0.309804"/>
<stop offset="0.7554" stop-color="#7C8B9C" stop-opacity="0.756863"/>
<stop offset="1" stop-color="#748290"/>
</linearGradient>
<linearGradient id="paint2_linear_59_145" x1="20.1152" y1="40.5735" x2="17.1436" y2="46.0548" gradientUnits="userSpaceOnUse">
<stop stop-color="#A1B5D8" stop-opacity="0"/>
<stop offset="0.3094" stop-color="#90A2BD" stop-opacity="0.309804"/>
<stop offset="0.7554" stop-color="#7C8B9C" stop-opacity="0.756863"/>
<stop offset="1" stop-color="#748290"/>
</linearGradient>
<linearGradient id="paint3_linear_59_145" x1="32.7023" y1="44.8156" x2="21.6564" y2="7.61271" gradientUnits="userSpaceOnUse">
<stop stop-color="#A1B5D8" stop-opacity="0"/>
<stop offset="0.3094" stop-color="#90A2BD" stop-opacity="0.309804"/>
<stop offset="0.7554" stop-color="#7C8B9C" stop-opacity="0.756863"/>
<stop offset="1" stop-color="#748290"/>
</linearGradient>
<linearGradient id="paint4_linear_59_145" x1="28.1706" y1="22.5394" x2="26.3023" y2="33.6933" gradientUnits="userSpaceOnUse">
<stop stop-color="#E52D27"/>
<stop offset="1" stop-color="#B31217"/>
</linearGradient>
</defs>
</svg>
