<svg width="130" height="25" viewBox="0 0 130 25" fill="none" xmlns="http://www.w3.org/2000/svg">
<path d="M22.48 24L22.446 9.72L15.442 21.484H12.96L5.99 10.026V24H0.822V0.199998H5.378L14.286 14.99L23.058 0.199998H27.58L27.648 24H22.48ZM37.9867 8.122C38.6213 7.238 39.4713 6.56933 40.5367 6.116C41.6247 5.66267 42.8713 5.436 44.2767 5.436V10.332C43.6873 10.2867 43.2907 10.264 43.0867 10.264C41.568 10.264 40.378 10.6947 39.5167 11.556C38.6553 12.3947 38.2247 13.664 38.2247 15.364V24H32.9207V5.708H37.9867V8.122ZM63.0741 4.62V10.91H74.0901V15.33H63.0741V24H57.5661V0.199998H75.5521V4.62H63.0741ZM85.7869 5.436C88.6203 5.436 90.7963 6.116 92.3149 7.476C93.8336 8.81333 94.5929 10.842 94.5929 13.562V24H89.6289V21.722C88.6316 23.422 86.7729 24.272 84.0529 24.272C82.6476 24.272 81.4236 24.034 80.3809 23.558C79.3609 23.082 78.5789 22.4247 78.0349 21.586C77.4909 20.7473 77.2189 19.7953 77.2189 18.73C77.2189 17.03 77.8536 15.6927 79.1229 14.718C80.4149 13.7433 82.3983 13.256 85.0729 13.256H89.2889C89.2889 12.1 88.9376 11.216 88.2349 10.604C87.5323 9.96933 86.4783 9.652 85.0729 9.652C84.0983 9.652 83.1349 9.81067 82.1829 10.128C81.2536 10.4227 80.4603 10.8307 79.8029 11.352L77.8989 7.646C78.8963 6.94333 80.0863 6.39933 81.4689 6.014C82.8743 5.62867 84.3136 5.436 85.7869 5.436ZM85.3789 20.702C86.2856 20.702 87.0903 20.498 87.7929 20.09C88.4956 19.6593 88.9943 19.036 89.2889 18.22V16.35H85.6509C83.4749 16.35 82.3869 17.064 82.3869 18.492C82.3869 19.172 82.6476 19.716 83.1689 20.124C83.7129 20.5093 84.4496 20.702 85.3789 20.702ZM105.547 24.272C104.029 24.272 102.544 24.0907 101.093 23.728C99.6426 23.3427 98.4866 22.8667 97.6253 22.3L99.3933 18.492C100.209 19.0133 101.195 19.444 102.351 19.784C103.507 20.1013 104.641 20.26 105.751 20.26C107.995 20.26 109.117 19.7047 109.117 18.594C109.117 18.0727 108.811 17.6987 108.199 17.472C107.587 17.2453 106.647 17.0527 105.377 16.894C103.881 16.6673 102.646 16.4067 101.671 16.112C100.697 15.8173 99.8466 15.296 99.1213 14.548C98.4186 13.8 98.0673 12.7347 98.0673 11.352C98.0673 10.196 98.396 9.176 99.0533 8.292C99.7333 7.38533 100.708 6.68267 101.977 6.184C103.269 5.68533 104.788 5.436 106.533 5.436C107.825 5.436 109.106 5.58333 110.375 5.878C111.667 6.15 112.733 6.53533 113.571 7.034L111.803 10.808C110.194 9.90133 108.437 9.448 106.533 9.448C105.4 9.448 104.55 9.60667 103.983 9.924C103.417 10.2413 103.133 10.6493 103.133 11.148C103.133 11.7147 103.439 12.1113 104.051 12.338C104.663 12.5647 105.638 12.78 106.975 12.984C108.471 13.2333 109.695 13.5053 110.647 13.8C111.599 14.072 112.427 14.582 113.129 15.33C113.832 16.078 114.183 17.1207 114.183 18.458C114.183 19.5913 113.843 20.6 113.163 21.484C112.483 22.368 111.486 23.0593 110.171 23.558C108.879 24.034 107.338 24.272 105.547 24.272ZM129.254 23.116C128.732 23.5013 128.086 23.796 127.316 24C126.568 24.1813 125.774 24.272 124.936 24.272C122.76 24.272 121.071 23.7167 119.87 22.606C118.691 21.4953 118.102 19.8633 118.102 17.71V10.196H115.28V6.116H118.102V1.662H123.406V6.116H127.962V10.196H123.406V17.642C123.406 18.4127 123.598 19.0133 123.984 19.444C124.392 19.852 124.958 20.056 125.684 20.056C126.522 20.056 127.236 19.8293 127.826 19.376L129.254 23.116Z" fill="#202226"/>
</svg>
