<svg width="17" height="17" viewBox="0 0 17 17" fill="none" xmlns="http://www.w3.org/2000/svg">
<path fill-rule="evenodd" clip-rule="evenodd" d="M15.117 0.736938C15.427 0.736938 15.695 0.849938 15.921 1.07694C16.147 1.30194 16.26 1.56994 16.26 1.87994V15.5939C16.26 15.9039 16.147 16.1719 15.92 16.3979C15.8165 16.5064 15.6918 16.5924 15.5537 16.6507C15.4156 16.709 15.267 16.7384 15.117 16.7369H1.40304C1.09304 16.7369 0.825043 16.6239 0.599043 16.3969C0.490838 16.2934 0.404947 16.1689 0.346649 16.031C0.28835 15.8931 0.258878 15.7447 0.260043 15.5949V1.87994C0.260043 1.56994 0.373043 1.30194 0.600043 1.07594C0.825043 0.849938 1.09304 0.736938 1.40304 0.736938H15.117ZM2.72404 14.4509H5.11704V6.80794H2.72404V14.4509ZM3.90304 5.77294C4.28304 5.77294 4.61104 5.63594 4.88504 5.36194C5.01555 5.23774 5.11926 5.08814 5.18977 4.92235C5.26028 4.75656 5.29611 4.5781 5.29504 4.39794C5.29504 4.02794 5.15904 3.70794 4.88504 3.43294C4.75804 3.30116 4.60538 3.19679 4.43649 3.12628C4.2676 3.05576 4.08605 3.02059 3.90304 3.02294C3.52204 3.02294 3.20104 3.15994 2.93904 3.43294C2.81287 3.55973 2.71316 3.71033 2.64569 3.876C2.57822 4.04166 2.54435 4.21907 2.54604 4.39794C2.54604 4.76694 2.67604 5.08794 2.93904 5.36194C3.20104 5.63594 3.52204 5.77194 3.90304 5.77194V5.77294ZM13.974 14.4509V10.2729C13.974 9.08294 13.808 8.21294 13.474 7.66594C13.022 6.97594 12.248 6.62994 11.153 6.62994C10.6379 6.6212 10.1306 6.75737 9.68904 7.02294C9.33104 7.23694 9.06904 7.51094 8.90304 7.84394H8.86704V6.80794H6.58104V14.4509H8.93904V10.6669C8.93904 10.0709 9.02204 9.61894 9.18904 9.30894C9.42704 8.90494 9.81904 8.70194 10.367 8.70194C10.915 8.70194 11.272 8.92794 11.439 9.38094C11.558 9.66694 11.617 10.1189 11.617 10.7379V14.4519H13.974V14.4509Z" fill="#A6A7A8"/>
</svg>
