<svg width="16" height="16" viewBox="0 0 16 16" fill="none" xmlns="http://www.w3.org/2000/svg">
<path fill-rule="evenodd" clip-rule="evenodd" d="M16.0006 0.893591V15.1076C16.0026 15.3407 15.9128 15.5652 15.7506 15.7326C15.6688 15.8207 15.5691 15.8902 15.4582 15.9364C15.3473 15.9826 15.2277 16.0045 15.1076 16.0006H11.0366V9.78659H13.1076L13.4296 7.39359H11.0366V5.85759C11.0366 5.45259 11.1076 5.16759 11.2506 5.00059C11.4406 4.78659 11.7626 4.67959 12.2146 4.67959H13.5006V2.50059C13.0006 2.45259 12.3816 2.42959 11.6436 2.42959C10.7146 2.42959 9.96459 2.70259 9.39359 3.25059C8.82159 3.79859 8.53659 4.58359 8.53659 5.60759V7.39359H6.46459V9.78659H8.53659V16.0006H0.893591C0.77348 16.0045 0.653926 15.9826 0.543 15.9364C0.432075 15.8902 0.332361 15.8207 0.250591 15.7326C0.0883721 15.5652 -0.00143564 15.3407 0.000591398 15.1076V0.893591C-0.00378223 0.775031 0.0161396 0.656829 0.0591322 0.546252C0.102125 0.435675 0.16728 0.335059 0.250591 0.250591C0.335059 0.16728 0.435675 0.102125 0.546252 0.0591322C0.656829 0.0161396 0.775031 -0.00378223 0.893591 0.000591398H15.1076C15.3456 0.000591398 15.5546 0.0835914 15.7326 0.250591C15.8207 0.332361 15.8902 0.432075 15.9364 0.543C15.9826 0.653926 16.0045 0.77348 16.0006 0.893591Z" fill="white"/>
</svg>
