<svg width="16" height="16" viewBox="0 0 16 16" fill="none" xmlns="http://www.w3.org/2000/svg">
<path fill-rule="evenodd" clip-rule="evenodd" d="M14.8581 0.000488281C15.1681 0.000488281 15.4361 0.113488 15.6621 0.340488C15.8881 0.565488 16.0011 0.833488 16.0011 1.14349V14.8575C16.0011 15.1675 15.8881 15.4355 15.6611 15.6615C15.5575 15.7699 15.4328 15.8559 15.2947 15.9142C15.1566 15.9726 15.008 16.0019 14.8581 16.0005H1.14407C0.834071 16.0005 0.566071 15.8875 0.340071 15.6605C0.231866 15.557 0.145975 15.4324 0.0876764 15.2945C0.0293783 15.1566 -9.4229e-05 15.0082 0.00107084 14.8585V1.14349C0.00107084 0.833488 0.114071 0.565488 0.341071 0.339488C0.566071 0.113488 0.834071 0.000488281 1.14407 0.000488281H14.8581ZM2.46507 13.7145H4.85807V6.07149H2.46507V13.7145ZM3.64407 5.03649C4.02407 5.03649 4.35207 4.89949 4.62607 4.62549C4.75658 4.50129 4.86028 4.35169 4.93079 4.1859C5.00131 4.02011 5.03713 3.84165 5.03607 3.66149C5.03607 3.29149 4.90007 2.97149 4.62607 2.69649C4.49906 2.56471 4.34641 2.46034 4.17752 2.38983C4.00862 2.31931 3.82708 2.28414 3.64407 2.28649C3.26307 2.28649 2.94207 2.42349 2.68007 2.69649C2.5539 2.82328 2.45418 2.97388 2.38672 3.13954C2.31925 3.30521 2.28538 3.48262 2.28707 3.66149C2.28707 4.03049 2.41707 4.35149 2.68007 4.62549C2.94207 4.89949 3.26307 5.03549 3.64407 5.03549V5.03649ZM13.7151 13.7145V9.53649C13.7151 8.34649 13.5491 7.47649 13.2151 6.92949C12.7631 6.23949 11.9891 5.89349 10.8941 5.89349C10.3789 5.88475 9.87162 6.02092 9.43007 6.28649C9.07207 6.50049 8.81007 6.77449 8.64407 7.10749H8.60807V6.07149H6.32207V13.7145H8.68007V9.93049C8.68007 9.33449 8.76307 8.88249 8.93007 8.57249C9.16807 8.16849 9.56007 7.96549 10.1081 7.96549C10.6561 7.96549 11.0131 8.19149 11.1801 8.64449C11.2991 8.93049 11.3581 9.38249 11.3581 10.0015V13.7155H13.7151V13.7145Z" fill="white"/>
</svg>
