<svg width="16" height="16" viewBox="0 0 16 16" fill="none" xmlns="http://www.w3.org/2000/svg">
<path fill-rule="evenodd" clip-rule="evenodd" d="M8.00104 3.89349C8.73904 3.89349 9.42404 4.07749 10.054 4.44649C10.6764 4.80695 11.1936 5.3241 11.554 5.94649C11.9212 6.5684 12.1127 7.2783 12.108 8.00049C12.108 8.73849 11.924 9.42349 11.555 10.0545C11.1945 10.6768 10.6774 11.194 10.055 11.5545C9.43289 11.921 8.72309 12.1121 8.00104 12.1075C7.27899 12.1121 6.56919 11.921 5.94704 11.5545C5.32468 11.194 4.80754 10.6768 4.44704 10.0545C4.08056 9.43234 3.88946 8.72254 3.89404 8.00049C3.89404 7.26249 4.07804 6.57749 4.44704 5.94649C4.80754 5.32413 5.32468 4.80699 5.94704 4.44649C6.56919 4.08001 7.27899 3.88891 8.00104 3.89349ZM8.00104 10.6795C8.35353 10.6848 8.70336 10.6177 9.02894 10.4825C9.35452 10.3474 9.64894 10.1469 9.89404 9.89349C10.1474 9.6484 10.3479 9.35397 10.4831 9.02839C10.6183 8.70281 10.6853 8.35298 10.68 8.00049C10.6853 7.648 10.6183 7.29816 10.4831 6.97258C10.3479 6.647 10.1474 6.35258 9.89404 6.10749C9.64894 5.8541 9.35452 5.65362 9.02894 5.51843C8.70336 5.38325 8.35353 5.31622 8.00104 5.32149C7.64855 5.31622 7.29871 5.38325 6.97313 5.51843C6.64755 5.65362 6.35313 5.8541 6.10804 6.10749C5.85465 6.35258 5.65417 6.647 5.51898 6.97258C5.3838 7.29816 5.31677 7.648 5.32204 8.00049C5.32204 8.73849 5.58404 9.37049 6.10804 9.89349C6.35313 10.1469 6.64755 10.3474 6.97313 10.4825C7.29871 10.6177 7.64855 10.6848 8.00104 10.6795ZM13.251 3.71449C13.2306 3.96899 13.1233 4.20872 12.947 4.39349C12.8638 4.48546 12.7618 4.55856 12.648 4.60789C12.5341 4.65722 12.4111 4.68163 12.287 4.67949C12.1603 4.68076 12.0347 4.65603 11.9179 4.60684C11.8011 4.55765 11.6957 4.48504 11.608 4.39349C11.5165 4.30587 11.4439 4.20041 11.3947 4.08362C11.3455 3.96684 11.3208 3.84121 11.322 3.71449C11.322 3.45249 11.418 3.22649 11.608 3.03649C11.6957 2.94494 11.8011 2.87232 11.9179 2.82313C12.0347 2.77394 12.1603 2.74922 12.287 2.75049C12.549 2.75049 12.775 2.84549 12.965 3.03649C13.155 3.22649 13.251 3.45249 13.251 3.71449ZM15.965 4.67949C15.989 5.34549 16.001 6.45249 16.001 8.00049C16.001 9.54849 15.983 10.6605 15.947 11.3405C15.912 12.0185 15.81 12.6075 15.644 13.1075C15.4366 13.6922 15.1011 14.2231 14.662 14.6615C14.222 15.1015 13.703 15.4295 13.108 15.6435C12.608 15.8095 12.018 15.9115 11.34 15.9465C10.662 15.9825 9.54904 16.0005 8.00104 16.0005C6.45304 16.0005 5.34104 15.9825 4.66104 15.9465C3.98304 15.9115 3.39404 15.7985 2.89404 15.6075C2.30718 15.4224 1.77395 15.0978 1.34004 14.6615C0.900997 14.2231 0.565485 13.6922 0.358038 13.1075C0.191038 12.6075 0.0900375 12.0175 0.0550375 11.3395C0.0190375 10.6615 0.0010376 9.54849 0.0010376 8.00049C0.0010376 6.45249 0.0190375 5.34049 0.0550375 4.66049C0.0900375 3.98249 0.191038 3.39349 0.358038 2.89349C0.565485 2.30879 0.900997 1.77784 1.34004 1.33949C1.78004 0.899488 2.29904 0.571488 2.89404 0.357488C3.39404 0.190488 3.98404 0.0894882 4.66204 0.0544882C5.34004 0.0184882 6.45304 0.000488281 8.00104 0.000488281C9.54904 0.000488281 10.661 0.0184882 11.341 0.0544882C12.019 0.0894882 12.608 0.190488 13.108 0.357488C13.6927 0.564936 14.2237 0.900448 14.662 1.33949C15.102 1.77949 15.43 2.29849 15.644 2.89349C15.81 3.39349 15.918 3.98849 15.965 4.67949ZM14.251 12.7145C14.394 12.3095 14.489 11.6675 14.537 10.7865C14.56 10.2625 14.572 9.52449 14.572 8.57149V7.43049C14.5765 6.69199 14.5649 5.95348 14.537 5.21549C14.489 4.31149 14.394 3.66849 14.251 3.28749C14.1223 2.93508 13.9181 2.61504 13.6528 2.34974C13.3875 2.08443 13.0674 1.88026 12.715 1.75149C12.335 1.60849 11.691 1.51349 10.787 1.46549C10.049 1.43813 9.31054 1.42646 8.57204 1.43049H7.43104C6.47804 1.43049 5.74104 1.44149 5.21604 1.46549C4.33604 1.51349 3.69204 1.60849 3.28804 1.75149C2.93558 1.88009 2.61544 2.08408 2.34997 2.3492C2.0845 2.61433 1.8801 2.9342 1.75104 3.28649C1.60804 3.66649 1.51304 4.31049 1.46504 5.21449C1.43799 5.95283 1.42666 6.69166 1.43104 7.43049V8.57249C1.43104 9.52549 1.44204 10.2625 1.46604 10.7875C1.51404 11.6675 1.60904 12.3115 1.75204 12.7155C2.06204 13.4535 2.57304 13.9655 3.28804 14.2515C3.69204 14.3945 4.33504 14.4895 5.21604 14.5375C5.74004 14.5605 6.47804 14.5725 7.43104 14.5725H8.57304C9.31154 14.577 10.05 14.5653 10.788 14.5375C11.693 14.4895 12.335 14.3945 12.716 14.2515C13.454 13.9415 13.966 13.4305 14.252 12.7155L14.251 12.7145Z" fill="white"/>
</svg>
