<svg width="16" height="14" viewBox="0 0 16 14" fill="none" xmlns="http://www.w3.org/2000/svg">
<path d="M14.373 3.72753C15.0075 3.2597 15.558 2.68757 16.001 2.03553C15.4052 2.30096 14.7709 2.47007 14.122 2.53653C14.8114 2.13118 15.3249 1.4833 15.562 0.71953C14.9216 1.10034 14.224 1.37553 13.496 1.53453C13.1868 1.20601 12.8132 0.944668 12.3986 0.766778C11.984 0.588887 11.5372 0.498257 11.086 0.50053C10.654 0.500399 10.2262 0.585414 9.82701 0.750718C9.42784 0.916022 9.06517 1.15837 8.75972 1.46392C8.45427 1.76946 8.21202 2.13221 8.04684 2.53142C7.88166 2.93064 7.79677 3.35849 7.79704 3.79053C7.79704 4.04053 7.82904 4.29053 7.89104 4.54153C6.58258 4.46483 5.30397 4.11925 4.13503 3.52635C2.96608 2.93344 1.9319 2.10595 1.09704 1.09553C0.802559 1.59864 0.651109 2.17263 0.659038 2.75553C0.659038 3.88353 1.22204 4.88553 2.13004 5.48153C1.59804 5.44953 1.06604 5.32453 0.627038 5.07353V5.10553C0.626938 5.86386 0.888567 6.59898 1.36773 7.18673C1.8469 7.77449 2.51424 8.17885 3.25704 8.33153C2.98129 8.40655 2.69767 8.44885 2.41204 8.45753C2.19204 8.45753 2.00504 8.42553 1.78604 8.39453C1.9927 9.04949 2.40022 9.62282 2.95086 10.0333C3.5015 10.4438 4.16733 10.6705 4.85404 10.6815C3.69293 11.5929 2.26011 12.0893 0.784038 12.0915C0.502038 12.0915 0.251038 12.0595 0.0010376 12.0285C1.44104 12.9685 3.16304 13.5005 5.04204 13.5005C11.085 13.5005 14.372 8.52053 14.372 4.16553V3.72753H14.373Z" fill="white"/>
</svg>
